<?xml version="1.0" encoding="UTF-8" standalone="no"?>
<svg
   xmlns:dc="http://purl.org/dc/elements/1.1/"
   xmlns:cc="http://creativecommons.org/ns#"
   xmlns:rdf="http://www.w3.org/1999/02/22-rdf-syntax-ns#"
   xmlns:svg="http://www.w3.org/2000/svg"
   xmlns="http://www.w3.org/2000/svg"
   xmlns:sodipodi="http://sodipodi.sourceforge.net/DTD/sodipodi-0.dtd"
   xmlns:inkscape="http://www.inkscape.org/namespaces/inkscape"
   viewBox="0 0 600 600"
   version="1.1"
   id="svg216"
   sodipodi:docname="bottlo_run_logo.svg"
   inkscape:version="0.92.4 (5da689c313, 2019-01-14)">
  <metadata
     id="metadata220">
    <rdf:RDF>
      <cc:Work
         rdf:about="">
        <dc:format>image/svg+xml</dc:format>
        <dc:type
           rdf:resource="http://purl.org/dc/dcmitype/StillImage" />
        <dc:title></dc:title>
      </cc:Work>
    </rdf:RDF>
  </metadata>
  <sodipodi:namedview
     pagecolor="#ffffff"
     bordercolor="#666666"
     borderopacity="1"
     objecttolerance="10"
     gridtolerance="10"
     guidetolerance="10"
     inkscape:pageopacity="0"
     inkscape:pageshadow="2"
     inkscape:window-width="1920"
     inkscape:window-height="1046"
     id="namedview218"
     showgrid="false"
     inkscape:zoom="0.78666665"
     inkscape:cx="283.34854"
     inkscape:cy="253.43131"
     inkscape:window-x="-11"
     inkscape:window-y="-11"
     inkscape:window-maximized="1"
     inkscape:current-layer="svg216" />
  <defs
     id="defs4">
    <style
       id="style2">.cls-1{fill:#fbff47;}.cls-2,.cls-4{fill:#494035;}.cls-2,.cls-5{stroke:#fff;stroke-miterlimit:10;}.cls-3{fill:#fff;}.cls-5{fill:none;stroke-width:2px;}</style>
  </defs>
  <g
     id="bottle"
     style="fill:#494035;fill-opacity:1">
    <path
       d="M 287.47656 19.640625 C 274.59906 19.596875 261.94047 19.759766 261.98047 20.759766 C 253.12047 26.549766 252.65961 37.020469 262.84961 40.980469 C 255.84961 43.300469 254.34992 57.229453 260.91992 64.189453 C 265.11992 68.629453 262.4707 75.789062 262.4707 75.789062 C 252.8007 114.46906 242.35931 218.50977 242.35938 218.50977 C 242.35938 218.50977 243.52047 236.69064 229.98047 255.64062 C 216.44047 274.59062 217.59961 300.5 217.59961 300.5 C 217.59961 300.5 218.09861 365.84691 217.93555 427.0625 C 221.05423 427.48208 224.28071 427.88235 227.60156 428.26562 L 227.5293 378.69922 L 227.65039 300.57031 L 227.65039 290.80078 L 227.65039 288.33008 L 227.65039 287.08984 L 227.75977 285.85938 L 227.98047 283.40039 C 228.08047 282.59039 228.21984 281.78094 228.33984 280.96094 C 228.53984 279.33094 228.96984 277.72914 229.33984 276.11914 C 229.70984 274.50914 230.17023 272.93062 230.74023 271.39062 A 57.55 57.55 0 0 1 234.64062 262.33008 L 235.85938 260.17969 C 236.29937 259.48969 236.70969 258.77961 237.17969 258.09961 A 32.55 32.55 0 0 1 240.17969 254.09961 A 57.29 57.29 0 0 0 246.17969 246.5 A 43.16 43.16 0 0 0 250.5293 237.92969 A 30 30 0 0 0 252.5293 228.63086 L 252.5293 228.57031 L 262 118.34961 A 0.39 0.39 0 0 1 262.38867 117.98828 A 0.39 0.39 0 0 1 262.42969 117.99023 A 0.41 0.41 0 0 1 262.80078 118.39062 L 262.83984 118.41992 C 262.62984 127.64992 262.45938 136.88937 262.10938 146.10938 C 261.75937 155.32937 261.44055 164.55953 261.06055 173.76953 L 260.4707 187.59961 L 259.76953 201.41992 C 259.27953 210.62992 258.89031 219.85078 258.32031 229.05078 L 258.32031 230.25 C 258.32031 230.82 258.24969 231.25023 258.17969 231.74023 C 258.06969 232.74023 257.91047 233.65984 257.73047 234.58984 A 42.29 42.29 0 0 1 256.25 240 A 49.33 49.33 0 0 1 251.5293 249.88086 A 65.49 65.49 0 0 1 245.14062 258.46094 A 26.88 26.88 0 0 0 242.83984 261.7207 C 242.45984 262.3107 242.11023 262.96031 241.74023 263.57031 L 240.74023 265.49023 A 51 51 0 0 0 237.43945 273.56055 C 236.94945 274.93055 236.64953 276.35977 236.26953 277.75977 C 235.88953 279.15977 235.64977 280.58906 235.50977 282.03906 C 235.41977 282.75906 235.3007 283.46945 235.2207 284.18945 L 235.08008 286.35938 L 235 287.43945 L 235 290.69922 L 235.13086 300.41992 C 235.38086 313.41992 235.4007 326.47 235.4707 339.5 L 235.63086 378.58984 L 235.43945 417.67969 L 235.38086 429.11133 C 251.84798 430.7794 270.63787 431.9772 292.07227 432.44922 C 318.54294 433.04213 341.78957 431.92163 362.0625 429.72656 C 361.87083 372.03932 361.48319 308.99318 360.67969 296.67969 C 357.62969 254.09969 331.94969 253.68086 331.67969 220.88086 C 330.89969 165.18086 322.77969 86.669687 317.67969 74.679688 A 10.52 10.52 0 0 1 318.93945 64.529297 C 325.74945 53.529297 324.05977 43.529297 315.25977 41.029297 L 319.59961 38.820312 C 320.37486 38.445304 321.03081 37.986432 321.58984 37.46875 A 3.5 3.5 0 0 1 319.56055 37.689453 A 4.35 4.35 0 0 1 317.80078 36.880859 A 8.07 8.07 0 0 1 315.73047 34.539062 A 13.06 13.06 0 0 1 313.86914 29.150391 C 315.18914 30.510391 316.36031 31.880547 317.57031 33.060547 A 9.22 9.22 0 0 0 319.36914 34.490234 A 2 2 0 0 0 320.07031 34.75 A 0.6 0.6 0 0 0 320.46094 34.660156 A 0.89 0.89 0 0 1 320.73047 34.509766 A 0.85 0.85 0 0 1 320.92969 34.289062 C 320.98969 34.199062 321.03936 34.090234 321.10938 33.990234 C 321.17937 33.890234 321.19977 33.719844 321.25977 33.589844 A 7.92 7.92 0 0 0 321.48047 31.369141 C 321.48047 29.709141 321.18953 27.929064 321.01953 26.039062 A 12.1 12.1 0 0 1 323.81055 31.039062 A 7.49 7.49 0 0 1 324.01758 32.015625 C 324.33284 26.331476 319.8501 19.699505 314.2793 19.759766 C 313.4493 19.934766 300.35406 19.684375 287.47656 19.640625 z M 264.05078 24.789062 A 22 22 0 0 0 270.16992 26.650391 L 271.75 26.919922 L 273.33984 27.119141 C 274.38984 27.269141 275.45953 27.319922 276.51953 27.419922 C 278.64953 27.529922 280.78969 27.670625 282.92969 27.640625 C 285.06969 27.610625 287.19984 27.589062 289.33984 27.539062 C 293.62984 27.369062 297.90922 27.059219 302.19922 26.699219 C 304.32922 26.479219 306.49086 26.349141 308.63086 26.119141 C 310.77086 25.889141 312.92961 25.690547 315.09961 25.560547 C 313.00961 26.130547 310.8993 26.609844 308.7793 27.089844 C 306.6593 27.569844 304.52086 27.89 302.38086 28.25 C 300.24086 28.61 298.07992 28.800078 295.91992 29.080078 C 293.75992 29.360078 291.58992 29.409063 289.41992 29.539062 A 79.24 79.24 0 0 1 276.35938 29 A 41.42 41.42 0 0 1 269.93945 27.640625 A 17.7 17.7 0 0 1 264.05078 24.789062 z M 258.84961 27.449219 C 259.05961 29.209219 259.1093 30.879219 259.2793 32.449219 A 9.7 9.7 0 0 0 259.67969 34.539062 A 1.78 1.78 0 0 0 260 35.140625 C 260.1 35.230625 260.07969 35.210469 260.17969 35.230469 C 260.27969 35.250469 260.32062 35.230469 260.39062 35.230469 A 0.71 0.71 0 0 1 260.59961 35.230469 L 260.86914 35.130859 A 3.78 3.78 0 0 1 261.19922 34.910156 A 9 9 0 0 0 262.60938 33.410156 C 263.53938 32.170156 264.40969 30.760547 265.42969 29.310547 A 11.26 11.26 0 0 1 264.67969 34.550781 A 7.75 7.75 0 0 1 263.09961 37 A 8.36 8.36 0 0 1 262.43945 37.550781 C 262.16945 37.710781 261.87008 37.86 261.58008 38 A 6.45 6.45 0 0 1 260.58008 38.210938 A 5.27 5.27 0 0 1 259.58008 38.130859 A 3.17 3.17 0 0 1 257.69922 36.919922 A 4.35 4.35 0 0 1 256.99023 35.240234 A 8 8 0 0 1 256.99023 32.349609 A 12.27 12.27 0 0 1 258.84961 27.449219 z M 312.63086 28.619141 A 12.75 12.75 0 0 1 314.25 34 A 8.29 8.29 0 0 1 313.9707 37 A 4.79 4.79 0 0 1 313.08008 38.650391 A 3.64 3.64 0 0 1 311.19922 39.779297 A 3.13 3.13 0 0 1 308.83984 39.390625 A 4.93 4.93 0 0 1 307.5 38.080078 A 9.17 9.17 0 0 1 306.2793 35.339844 A 13.93 13.93 0 0 1 305.89062 29.820312 C 306.89062 31.420313 307.62094 32.999219 308.46094 34.449219 A 11.72 11.72 0 0 0 309.75 36.339844 A 2 2 0 0 0 310.33984 36.830078 C 310.48984 36.900078 310.43953 36.880078 310.51953 36.830078 A 0.6 0.6 0 0 0 310.88086 36.630859 A 2.13 2.13 0 0 0 311.30078 36 A 10.25 10.25 0 0 0 311.90039 33.830078 C 312.19039 32.210078 312.34086 30.459141 312.63086 28.619141 z M 266.41992 29.900391 C 266.86992 31.750391 267.16914 33.520156 267.61914 35.160156 A 9.29 9.29 0 0 0 268.42969 37.300781 A 1.89 1.89 0 0 0 268.91016 37.880859 A 0.47 0.47 0 0 0 269.28906 38 A 1.63 1.63 0 0 1 269.59961 38 A 0.9 0.9 0 0 1 269.88086 37.919922 A 3.07 3.07 0 0 1 270.18945 37.75 C 270.29945 37.68 270.39953 37.560469 270.51953 37.480469 A 8 8 0 0 0 271.83984 35.689453 C 272.64984 34.229453 273.34039 32.579375 274.15039 30.859375 A 12 12 0 0 1 274.0293 36.560547 A 7.62 7.62 0 0 1 272.60938 39.410156 A 5 5 0 0 1 271.96094 40.060547 C 271.69094 40.250547 271.40914 40.439375 271.11914 40.609375 C 270.82914 40.779375 270.44914 40.839453 270.11914 40.939453 A 8.94 8.94 0 0 1 269.11914 40.939453 A 3.59 3.59 0 0 1 267.0293 40.070312 A 4.48 4.48 0 0 1 265.92969 38.480469 A 8.14 8.14 0 0 1 265.33984 35.410156 A 13 13 0 0 1 266.41992 29.900391 z M 275.73047 31.220703 C 276.41047 33.000703 276.93008 34.719297 277.58008 36.279297 A 9.37 9.37 0 0 0 278.65039 38.279297 A 1.83 1.83 0 0 0 279.19922 38.800781 A 0.52 0.52 0 0 0 279.58984 38.869141 L 279.89062 38.869141 A 0.9 0.9 0 0 1 280.16016 38.759766 A 3.06 3.06 0 0 1 280.44922 38.550781 C 280.54922 38.470781 280.64 38.340234 280.75 38.240234 A 8.17 8.17 0 0 0 281.83008 36.300781 C 282.45008 34.760781 282.9393 33.030703 283.5293 31.220703 A 12.22 12.22 0 0 1 284.11914 36.900391 A 7.86 7.86 0 0 1 283.06055 39.900391 A 5.45 5.45 0 0 1 282.49023 40.619141 A 7.89 7.89 0 0 1 281.73047 41.269531 A 9.27 9.27 0 0 1 280.73047 41.720703 A 9.26 9.26 0 0 1 279.73047 41.900391 A 3.52 3.52 0 0 1 277.55078 41.300781 A 4.52 4.52 0 0 1 276.25977 39.859375 A 8.38 8.38 0 0 1 275.25977 36.859375 A 13.34 13.34 0 0 1 275.73047 31.220703 z M 286 31.220703 C 286.68 33.000703 287.19961 34.719297 287.84961 36.279297 A 9 9 0 0 0 288.91992 38.279297 A 1.94 1.94 0 0 0 289.46094 38.800781 A 0.56 0.56 0 0 0 289.85938 38.869141 L 290.16016 38.869141 A 0.9 0.9 0 0 1 290.42969 38.759766 A 2.16 2.16 0 0 1 290.7207 38.550781 C 290.8207 38.470781 290.90953 38.340234 291.01953 38.240234 A 8.17 8.17 0 0 0 292.09961 36.300781 C 292.71961 34.760781 293.21078 33.030703 293.80078 31.220703 A 12.09 12.09 0 0 1 294.38086 36.900391 A 7.67 7.67 0 0 1 293.33008 39.900391 A 5.45 5.45 0 0 1 292.75977 40.619141 A 7.89 7.89 0 0 1 292 41.269531 A 9.27 9.27 0 0 1 291 41.720703 A 9.26 9.26 0 0 1 290 41.900391 A 3.52 3.52 0 0 1 287.82031 41.300781 A 4.52 4.52 0 0 1 286.5293 39.859375 A 8.38 8.38 0 0 1 285.5293 36.859375 A 13.34 13.34 0 0 1 286 31.220703 z M 296.33984 31.220703 C 297.01984 33.000703 297.53945 34.719297 298.18945 36.279297 A 9 9 0 0 0 299.25977 38.279297 A 1.94 1.94 0 0 0 299.80078 38.800781 A 0.56 0.56 0 0 0 300.19922 38.869141 L 300.5 38.869141 A 0.9 0.9 0 0 1 300.76953 38.759766 A 2.16 2.16 0 0 1 301.06055 38.550781 C 301.16055 38.470781 301.23938 38.340234 301.35938 38.240234 A 8.17 8.17 0 0 0 302.43945 36.300781 C 303.05945 34.760781 303.55062 33.030703 304.14062 31.220703 A 12.09 12.09 0 0 1 304.7207 36.900391 A 7.67 7.67 0 0 1 303.66992 39.900391 A 6.43 6.43 0 0 1 303.09961 40.619141 A 7.89 7.89 0 0 1 302.33984 41.269531 A 9.27 9.27 0 0 1 301.33984 41.720703 A 9.26 9.26 0 0 1 300.33984 41.900391 A 3.52 3.52 0 0 1 298.16016 41.300781 A 4.52 4.52 0 0 1 296.86914 39.859375 A 8.38 8.38 0 0 1 295.86914 36.859375 A 13.34 13.34 0 0 1 296.33984 31.220703 z M 311.07031 64.029297 C 310.32031 64.659297 309.54023 65.240313 308.74023 65.820312 A 18.1 18.1 0 0 1 306.26953 67.439453 L 303.63086 68.800781 L 302.96094 69.130859 L 302.25977 69.390625 L 300.84961 69.890625 A 34.56 34.56 0 0 1 295.05078 71.400391 C 294.05078 71.580391 293.05078 71.620469 292.05078 71.730469 C 291.55078 71.730469 291.05078 71.819844 290.55078 71.839844 L 289.05078 71.839844 A 36.31 36.31 0 0 1 277.28906 69.839844 A 30 30 0 0 1 267.08984 64.089844 A 86.19 86.19 0 0 0 278.08984 66.869141 A 61 61 0 0 0 289.08984 67.869141 L 290.46094 67.869141 C 290.92094 67.869141 291.37008 67.809062 291.83008 67.789062 C 292.74008 67.729062 293.66031 67.730625 294.57031 67.640625 C 295.48031 67.550625 296.39055 67.400547 297.31055 67.310547 A 9 9 0 0 0 298.67969 67.109375 L 300.03906 66.849609 A 53.14 53.14 0 0 0 305.50977 65.619141 A 23.8 23.8 0 0 0 308.25 64.830078 C 309.17 64.550078 310.10031 64.269297 311.07031 64.029297 z M 217.19922 500.63867 C 216.91733 512.55531 216.55361 522.08072 216.06055 527.14062 C 214.77055 555.70062 233.67039 565.37 245.90039 567.75 L 332.08008 567.75 C 361.87008 567.75 362.25 531.00977 362.25 531.00977 C 362.25 531.00977 362.24179 517.99537 362.22656 503.74805 C 342.46123 506.39169 320.34331 507.79797 295.75391 507.2793 C 272.87465 506.7967 252.42476 505.25073 234.21094 503.01758 L 233.44922 534.92969 L 233.55078 535.53906 C 233.62078 535.94906 233.71055 536.39055 233.81055 536.81055 C 233.91055 537.23055 234.02992 537.66984 234.16992 538.08984 L 234.60938 539.34961 A 21.68 21.68 0 0 0 237.24023 543.99023 A 20.54 20.54 0 0 0 246.06055 550.31055 A 16.81 16.81 0 0 0 248.82031 551.21094 L 250.25977 551.57031 A 9.94 9.94 0 0 0 251.7207 551.86914 L 254.7207 552.2793 C 255.7207 552.4093 256.8907 552.45055 257.9707 552.56055 C 262.3707 552.92055 266.80047 553.18945 271.23047 553.43945 C 275.66047 553.68945 280.11055 553.89984 284.56055 554.08984 L 297.91016 554.68945 L 324.65039 555.78906 A 0.41 0.41 0 0 1 325.03906 556.21094 A 0.4 0.4 0 0 1 324.65039 556.58984 C 306.82039 557.02984 288.99992 557.27936 271.16992 557.10938 C 266.70992 557.03936 262.24906 556.97078 257.78906 556.80078 C 256.66906 556.74078 255.55945 556.80069 254.43945 556.64062 L 251.08008 556.32031 A 11.64 11.64 0 0 1 249.41016 556.03906 L 247.75 555.69922 A 21.65 21.65 0 0 1 244.49023 554.76953 A 25.47 25.47 0 0 1 233.25 547.33008 A 26.85 26.85 0 0 1 229.63086 541.55078 A 23.51 23.51 0 0 1 227.75977 534.96094 L 227.71094 502.18359 C 224.11001 501.69573 220.61665 501.17718 217.19922 500.63867 z "
       id="path9"
       style="fill:#494035;fill-opacity:1" />
  </g>
  <path
     style="fill:#494035"
     d="m 112.99588,443.13358 c -19.706028,5.73618 -34.367965,13.73506 -44.574418,20.87814 a 79.57,79.57 0 0 1 -0.419354,-8.02057 c 0,0 -8.933634,-12.70389 -23.951341,-1.77314 -15.017706,10.93076 -39.718257,8.87112 -39.718257,8.87112 4.3225028,12.92585 28.754696,15.47653 28.754696,15.47653 -19.521767,20.85343 -16.858085,34.00868 -16.858085,34.00868 14.905282,-15.5379 29.058246,-21.95714 39.920286,-24.56361 l 21.230804,25.389 c 11.869475,-15.8524 42.674499,-24.06379 64.536519,-28.97351 -23.81785,-10.34726 -33.89394,-19.15034 -33.89394,-19.15034 0,0 -9.093212,-8.54718 1.75119,-18.08889 1.24053,-1.09151 2.30196,-2.47311 3.2219,-4.05341 z"
     id="path32"
     inkscape:connector-curvature="0" />
  <path
     style="fill:#494035"
     d="m 488.68519,442.5001 c 6.76945,7.81536 0.005,15.136 0.005,15.136 0,0 -10.18777,10.20076 -35.12098,22.79874 20.51927,5.37933 44.963,13.75412 55.02362,27.57518 l 15.85791,-18.40854 c 11.03313,2.83189 26.18646,10.23987 41.27565,29.02551 -0.0599,0.004 3.7472,-12.85517 -13.85425,-35.3581 0,0 24.56571,-0.37766 29.99983,-12.86978 0,0 -24.87782,-0.12416 -38.81552,-12.33988 -13.93771,-12.21571 -23.97158,-0.35032 -23.97158,-0.35032 0,0 -0.0436,0.57418 -0.14466,1.50252 -7.46631,-5.448 -17.4804,-11.46277 -30.25471,-16.71133 z"
     id="path34"
     inkscape:connector-curvature="0" />
  <path
     inkscape:connector-curvature="0"
     id="path36"
     d="m 469.88355,397.71046 c -0.10875,-0.008 -0.22166,-0.006 -0.33994,0.008 -0.86025,0.0909 -1.97715,0.72971 -3.40486,2.39602 -3.19712,3.73791 -52.4793,38.73053 -176.21202,36.09147 -109.96048,-2.30604 -146.85045,-23.76094 -153.70819,-28.51666 a 7.3306983,6.9804536 0 0 1 -1.8918,-1.88232 c -0.94589,-1.36006 -2.83672,-3.78285 -4.21774,-4.35926 -2.0053,-0.81965 -5.94037,0.14276 -6.06335,4.93451 -0.12294,4.79174 3.12198,32.53412 -6.80047,41.4781 -9.92244,8.944 -1.03088,16.33934 -1.03088,16.33934 0,0 47.5976,36.80275 177.19488,39.40578 129.59728,2.60305 187.03995,-48.39523 187.03995,-48.39523 0,0 4.68381,-4.02664 -3.06307,-15.3665 -7.74689,-11.33986 -5.29851,-39.87373 -5.29851,-39.87373 0,0 -0.57302,-2.15429 -2.204,-2.25879 z m -272.39973,38.53146 c 2.18531,4.3e-4 4.38297,0.16242 6.57508,0.45739 l 0.9459,0.11787 c 6.88612,0.90072 16.26033,4.3321 15.04012,12.54652 v 0.0369 c -1.01211,6.30492 -6.62091,11.52745 -12.86383,12.82447 3.49036,1.9185 4.72971,4.74832 4.24729,7.73866 a 14.831658,14.123034 0 0 1 -2.44048,5.53791 c -3.87816,5.34118 -12.04243,7.81875 -18.47454,6.95408 l -0.55793,-0.0457 a 16.931548,16.122596 0 0 1 -10.79282,-7.32175 1.3810089,1.3150274 0 0 1 -0.12193,-0.7758 c 0.0851,-0.52239 0.47147,-1.07965 0.84983,-1.02561 a 0.3026869,0.28822519 0 0 1 0.2845,0.18823 15.805931,15.050758 0 0 0 9.37398,4.91868 c 5.14568,0.69355 10.62212,-1.38763 14.59488,-7.33228 a 11.029154,10.502205 0 0 0 1.8918,-4.07955 c 0.58646,-3.9631 -4.54887,-4.19798 -6.42175,-6.12547 -1.89178,3.86401 -5.0241,10.448 -5.45922,13.36628 a 0.83238896,0.79261925 0 0 1 -0.79441,0.64914 l -0.60412,-0.081 c -1.89179,-0.25221 -3.96338,-0.83813 -4.0958,-2.53146 a 5.1078413,4.8638 0 0 1 0.0758,-1.05376 c 0.83239,-5.60238 9.08076,-21.10412 11.50225,-24.96814 0.32161,-0.56744 1.10671,-0.69213 1.8918,-0.58405 1.8918,0.2612 4.37898,1.73815 4.19927,2.93608 l -0.12379,0.2885 -5.2209,9.19529 0.74821,0.18119 c 2.56338,0.34226 6.00571,-1.47809 8.70152,-4.09012 2.06204,-1.9275 4.02966,-4.7923 4.40801,-7.33228 0.37837,-2.53998 -0.75671,-4.74587 -4.72947,-5.66459 l -2.55502,-0.49609 c -9.45897,-1.27 -23.25886,1.28793 -26.67356,10.73631 -0.14188,0.44136 -0.39756,0.63107 -0.77593,0.57703 l -0.36765,-0.11787 c -1.7499,-0.69355 -3.00883,-4.67444 -2.56426,-7.66478 a 3.9727655,3.7829555 0 0 1 1.48535,-2.77424 c 5.82436,-3.7289 12.26592,-5.18734 18.82188,-5.18609 z m 145.39463,8.03246 c 8.14944,-0.21869 14.32037,3.11375 15.00318,9.95347 a 19.93004,18.977826 0 0 1 -1.14542,7.68237 c -1.96746,5.64742 -6.31947,10.70987 -11.55028,11.76369 a 24.101443,22.94993 0 0 0 5.1082,8.65519 c 1.8918,1.86446 4.05894,2.90928 6.0264,2.70212 l 0.80364,-0.14425 c 0.34053,0 0.64387,0.30645 0.68172,0.66673 a 0.83238896,0.79261925 0 0 1 -0.34178,0.68432 15.805931,15.050758 0 0 1 -5.13592,2.70211 l -0.7279,0.0915 c -6.44156,0.58545 -9.36423,-9.43135 -10.96281,-15.19585 -0.94588,5.34117 -2.24279,13.18566 -2.00632,15.56351 a 0.72834034,0.69354184 0 0 1 -0.60412,0.78462 l -0.68171,0.0633 c -1.62694,0.15313 -3.41528,-8.5e-4 -3.91661,-1.54105 a 3.3011789,3.1434559 0 0 1 -0.1404,-0.78284 c -0.22702,-2.24275 0.37659,-7.10733 1.25627,-12.72771 1.55127,-9.76364 4.11531,-21.73307 4.93825,-24.50722 0.14187,-0.59448 0.79388,-0.90122 1.68303,-0.95525 1.62694,-0.14412 3.95413,0.5851 4.08656,1.89112 v 0.44155 c -0.49186,1.86447 -2.24178,9.67414 -3.78358,17.91556 a 3.4998172,3.3326036 0 0 0 1.30614,0.0985 c 4.4741,-0.40531 8.68289,-7.56523 9.71392,-14.36552 a 12.750686,12.141486 0 0 0 0.10347,-3.07154 c -0.28377,-2.8192 -1.89144,-5.08096 -6.00608,-5.28813 a 21.75562,20.716186 0 0 0 -3.14067,0.0634 25.643256,24.418077 0 0 0 -12.40935,4.50351 c -4.1052,2.78319 -6.98937,6.6923 -7.44341,11.10574 0,0.44137 -0.19899,0.67645 -0.61519,0.71248 a 0.85130689,0.81063331 0 0 1 -0.5487,-0.10028 c -0.7851,-0.28822 -1.77887,-1.29652 -2.73423,-3.3231 a 11.946673,11.375887 0 0 1 -0.9459,-3.34246 4.0200604,3.8279906 0 0 1 0.67248,-2.82702 c 5.67538,-6.30492 13.06231,-9.00815 20.98893,-9.71069 l 0.81287,-0.0722 c 0.55986,-0.0461 1.11203,-0.0751 1.65532,-0.0897 z m -75.16552,1.7926 a 2.0053007,1.9094918 0 0 1 0.13672,0.009 c 1.82557,0.0811 4.07703,1.69467 4.01083,2.94665 l -0.0758,0.26036 c -0.99318,2.81018 -9.58185,26.93103 -10.80205,36.02814 l -0.16075,1.80141 c 0,0.5314 9.5e-4,0.9007 0.10531,0.9007 h 0.13117 c 0.9459,0.0451 2.36475,-2.21636 2.83769,-2.9009 2.36474,-3.72891 5.07947,-10.11363 6.62127,-13.78851 0.1608,-0.43234 0.37947,-0.51389 0.66325,-0.50489 a 0.61483276,0.5854574 0 0 1 0.33992,0.10733 1.0310273,0.98176706 0 0 1 0.01,0.009 c 2.03678,-2.48588 4.64266,-4.16398 7.50064,-4.03381 a 7.6333852,7.2686788 0 0 1 1.69414,0.26916 c 3.2255,0.9007 4.02914,3.88329 3.87781,6.92767 a 20.601627,19.617326 0 0 1 -1.14543,5.3321 6.6212758,6.3049259 0 0 0 6.00792,-2.97302 0.56753793,0.54042222 0 0 1 0.55793,-0.29731 0.86076586,0.81964035 0 0 1 0.40644,0.14425 0.45403035,0.43233776 0 0 1 0.24571,0.46794 0.79455311,0.7565911 0 0 1 -0.085,0.38703 7.9833668,7.6019392 0 0 1 -7.13302,3.60282 h -0.5487 c -1.69316,4.01713 -5.28644,9.00753 -9.97809,8.8364 -4.23241,-0.20464 -5.84608,-3.51402 -5.68463,-7.62257 -0.7831,1.51048 -1.58883,2.94594 -2.39429,4.15521 -0.84185,1.39608 -2.50566,3.6033 -3.98126,3.65734 l -0.94589,-0.0457 c -1.69317,-0.0721 -3.302,-0.4146 -3.90737,-2.31509 a 12.996619,12.375668 0 0 1 -0.303,-3.83678 c 0.11015,-2.2475 0.57147,-5.01436 1.22488,-7.99551 -1.6593,3.06513 -4.00006,7.36197 -6.30353,9.95875 -0.78508,0.90071 -2.12767,2.33353 -3.41408,2.29751 h -1.16391 c -1.53235,0.0721 -3.0276,-0.29815 -3.59514,-1.61317 a 6.3658838,6.0617357 0 0 1 -0.44339,-2.9273 17.849068,16.996278 0 0 1 0.36765,-3.04339 39.595229,37.703456 0 0 1 -3.49909,5.02599 c -0.78508,0.90071 -2.19396,2.33177 -3.48984,2.29575 h -1.15466 c -1.57018,-0.045 -3.05531,-0.41422 -3.62285,-1.72929 a 7.7185158,7.3497421 0 0 1 -0.38798,-2.92729 c 0.0725,-2.12717 0.68824,-4.8878 1.56295,-7.83893 a 7.9266131,7.5478969 0 0 1 -3.45473,0.84969 h -0.53945 c -1.39048,4.11621 -4.58627,9.38604 -9.27793,9.50312 -4.29437,0.1261 -6.14935,-3.1343 -6.26286,-7.28654 -0.18919,-6.67422 4.27634,-15.54587 10.60439,-15.69899 a 7.3117803,6.9624396 0 0 1 1.71073,0.15305 c 3.29173,0.69354 4.32291,3.60204 4.40803,6.6374 a 20.355693,19.383144 0 0 1 -0.74636,5.40423 6.6212758,6.3049259 0 0 0 4.14567,-1.47244 c 1.11069,-3.41539 2.50006,-6.97256 3.8187,-10.06607 -1.57019,-0.11709 -2.83769,-0.15241 -3.78358,-0.17942 a 0.64320966,0.61247851 0 0 1 -0.66324,-0.66675 0.74725827,0.71155591 0 0 1 0.70942,-0.62978 l 4.21958,0.18823 c 0.9459,-2.1797 1.83585,-4.03515 2.48852,-5.40422 0.22702,-0.57644 0.94413,-0.74808 1.72922,-0.73006 1.76883,0.054 4.18145,1.17161 4.15307,2.07231 l -1.97677,4.28715 5.3724,0.22518 c 0.94591,-2.24276 1.89239,-4.1607 2.49776,-5.50274 0.22701,-0.57645 0.94597,-0.74807 1.73106,-0.73006 1.83504,0.054 4.25721,1.16261 4.22882,2.07232 l -0.0758,0.19702 c -0.72834,1.40511 -1.39195,2.80999 -1.98787,4.28714 1.29588,0 2.45107,0.0735 3.3402,0.16361 a 0.63375069,0.60347147 0 0 1 0.65215,0.66674 0.66212758,0.63049259 0 0 1 -0.69093,0.56644 c -1.09725,0 -2.38329,-0.0715 -3.87781,-0.17943 a 150.09487,142.92366 0 0 0 -6.38481,18.01408 23.165006,22.058233 0 0 0 -0.94589,4.25018 c 0,0.32427 -7.4e-4,0.52228 0.18844,0.53129 0.81347,0 2.22359,-1.49432 2.64925,-2.06177 2.20394,-2.70211 4.81387,-7.38605 6.33676,-10.19626 a 0.63375069,0.60347147 0 0 1 0.62444,-0.36942 0.67158655,0.63949961 0 0 1 0.50805,0.24277 c 2.60537,-11.13261 7.67137,-24.73539 8.64978,-27.17415 a 2.0053007,1.9094918 0 0 1 1.81974,-0.99043 z m 129.501,7.52934 a 2.8376897,2.702111 0 0 1 2.76934,1.89288 l 0.18843,0.75645 c 0.55809,4.50351 0.30189,13.76275 1.53155,17.33853 0.25539,0.73858 0.45433,1.08951 0.77592,0.99043 1.57019,-0.63049 2.03383,-3.02608 3.22566,-14.12276 a 0.65266861,0.62148555 0 0 1 0.3972,-0.53126 0.69996344,0.66652074 0 0 1 0.9459,0.39581 0.48240724,0.45935889 0 0 1 0,0.27091 c -1.15399,11.21376 -1.66345,14.3024 -4.07549,15.1941 l -1.79757,0.62979 c -2.29852,0.70255 -4.0876,0.72133 -5.14701,-2.35907 -1.42829,-4.50351 -1.24814,-15.65465 -1.4373,-16.42025 -0.0567,-0.18014 -0.17058,-0.28781 -0.303,-0.24276 -0.13243,0.0449 -0.38693,0.32502 -0.50989,0.56821 -2.19448,3.60282 -4.2187,11.89674 -4.72948,14.17553 a 42.073479,40.0633 0 0 0 0.78516,7.06314 c 0.18918,0.54943 -0.11366,0.71155 -0.62444,0.9007 l -0.3307,0.0985 c -1.55127,0.48638 -3.72638,0.82787 -4.275,-0.56821 -0.47849,-1.38274 -0.81169,-4.75786 -1.02165,-8.4652 a 82.434884,78.496326 0 0 1 -2.22434,8.04299 c -0.94589,2.35083 -2.04172,4.13422 -3.2903,4.50351 l -0.81473,0.17065 c -1.65531,0.3783 -3.42438,0.58489 -4.48378,-0.57701 a 5.5618717,5.2961376 0 0 1 -1.18237,-2.46814 18.463901,17.581736 0 0 1 -0.41566,-2.50332 19.646271,18.707616 0 0 1 -0.88863,2.87274 c -0.85131,2.45892 -2.05238,4.66621 -3.55636,5.08054 l -0.8609,0.18823 c -1.65533,0.37829 -3.42414,0.58664 -4.49301,-0.57525 a 5.5145769,5.2511025 0 0 1 -1.17315,-2.45934 24.489262,23.319219 0 0 1 -0.53021,-4.88175 85.130689,81.063331 0 0 1 1.18237,-13.67241 1.7593676,1.6753089 0 0 1 1.46688,-1.13466 c 1.58912,-0.3693 3.87779,0.108 4.11427,1.05374 v 0.26917 c -0.34998,2.21572 -1.89178,14.0419 -0.94589,18.61746 0.21756,0.90072 0.4264,1.43368 0.75747,1.36162 0.72833,-0.17114 1.76882,-1.33424 2.83768,-4.37861 a 59.241501,56.411072 0 0 0 2.2225,-10.91575 73.51508,70.002691 0 0 1 0.94588,-7.47656 c 0.0757,-0.54943 0.67048,-0.95454 1.46503,-1.13467 0.39728,-0.0901 0.83911,-0.13236 1.28028,-0.12843 1.32353,0.0118 2.65355,0.43438 2.84509,1.19097 v 0.27092 c -0.35944,2.20672 -1.93909,14.04212 -0.94591,18.60867 0.22702,0.90072 0.43409,1.44113 0.83137,1.35107 0.84184,-0.2612 1.7032,-1.8556 2.49775,-3.97224 a 82.557851,78.613418 0 0 0 2.66773,-10.01681 0.62429172,0.59446444 0 0 1 0.50066,-0.51193 0.80401206,0.76559814 0 0 1 0.0407,-0.008 c -0.13398,-3.71928 -0.15231,-7.33374 -0.0498,-9.28851 0,-0.54944 0.58594,-1.00055 1.36157,-1.24373 1.55127,-0.48639 3.98252,-0.29767 4.32305,0.69311 v 0.2621 c -0.11351,1.33305 -0.14161,8.10579 -0.16997,8.65521 0.51079,-1.65729 1.07795,-3.5399 1.74954,-5.3233 1.11615,-3.00834 2.74427,-6.99734 5.46846,-7.85302 a 2.8376897,2.702111 0 0 1 1.09924,-0.23572 z m -154.62822,9.80921 a 157.96472,150.41752 0 0 0 -6.46054,18.16713 30.978112,29.498046 0 0 0 -0.88863,4.26075 c 0,0.32426 0.0468,0.51347 0.1792,0.52247 0.70943,0.018 2.11881,-1.49608 2.60122,-2.06353 a 68.586959,65.310025 0 0 0 5.54236,-8.85398 120.68693,114.92079 0 0 1 4.33227,-11.81645 c -1.76882,-0.1171 -3.53705,-0.16234 -5.30588,-0.21639 z m -18.86066,2.98182 c -3.25389,0.59447 -6.62231,9.50284 -6.49935,14.1685 0,1.62126 0.48204,2.78247 1.51308,2.88155 h 0.19952 c 2.65797,-0.0541 5.1456,-6.41225 5.8361,-8.43883 a 3.9065527,3.7199062 0 0 1 -1.57957,-3.0082 c -0.0473,-1.88248 1.12451,-3.79316 2.41094,-4.15344 -0.22702,-0.83766 -0.65165,-1.47661 -1.54078,-1.44958 z m 55.85407,4.51231 c -3.29171,0.36929 -7.33069,9.00634 -7.56716,13.69001 -0.0851,1.61226 0.26448,2.80188 1.27659,2.97302 h 0.20876 c 2.65798,0.15312 5.62794,-6.01592 6.46979,-7.98847 v -0.0369 a 3.8876348,3.7018922 0 0 1 -1.3431,-3.11552 c 0.0946,-1.87346 1.41019,-3.70225 2.72499,-3.96344 -0.17025,-0.85567 -0.54079,-1.52262 -1.42992,-1.55866 z"
     style="fill:#494035;stroke-width:0.92302358" />
  <g
     id="wheat"
     style="fill:#494035;fill-opacity:1;stroke:none">
    <path
       class="cls-4"
       d="M82,335.14s-14,27.11-2.47,46.94S112.36,411,112.36,411s8.82,7.12-18.62-42.42c0,0-8.6-15.21-8.87-25.19S84.59,329.1,82,335.14Z"
       id="path57"
       style="fill:#494035;fill-opacity:1;stroke:none" />
    <path
       class="cls-4"
       d="M66.67,306.73s-16.81,17-13.24,37,16.88,34.59,16.88,34.59,4.7,8.77-3.24-40.61c0,0-2.56-15.22-.32-23.36S70,302.74,66.67,306.73Z"
       id="path59"
       style="fill:#494035;fill-opacity:1;stroke:none" />
    <path
       class="cls-4"
       d="M58.87,267S38,277.66,38.1,305.69s9,37.86,9,37.86,1.8.8.75-19.05c0,0,.77-11.59,6.5-16.81s2.24-29.37,2.24-29.37.49-6.12,3-8.68C61.11,268.12,60.33,266.15,58.87,267Z"
       id="path61"
       style="fill:#494035;fill-opacity:1;stroke:none" />
    <path
       class="cls-4"
       d="M33.5,292.32c-1.84-4.32-6.69-19.3.42-44.78,0,0,5.39-17.1,24.38-21.13,0,0,2.74,1.06-.11,5S51.07,246.1,49,260.15c0,0,.23,5.24-7.52,11.87,0,0-5.44,2.57-7.21,20C34.21,292.56,33.7,292.8,33.5,292.32Z"
       id="path63"
       style="fill:#494035;fill-opacity:1;stroke:none" />
    <path
       class="cls-4"
       d="M31.73,240.45s-4.59-25.57,11-49.66c8.08-10.27,13.49-9.73,27.27-5.44,0,0,2.45,1.24-2.62,4a9.39,9.39,0,0,0-3.07,2.59A58.1,58.1,0,0,0,56,208.2a19.28,19.28,0,0,1-3.36,6.28c-2.37,2.79-6.38,6.86-11.21,9.17,0,0-5.24,2.9-8.31,14C33.07,237.7,32.27,245.91,31.73,240.45Z"
       id="path65"
       style="fill:#494035;fill-opacity:1;stroke:none" />
    <path
       class="cls-4"
       d="M37.59,186.39s-1.16-19.21,18.16-37.06c0,0,12-12.43,28.09,4,0,0,1.75,3.49-3.79,5,0,0-10.21,4.2-16.21,13.45,0,0-3.77,3.45-11,2.77a18.93,18.93,0,0,0-14,11S38,189.78,37.59,186.39Z"
       id="path67"
       style="fill:#494035;fill-opacity:1;stroke:none" />
    <path
       class="cls-4"
       d="M54.46,118s9.67-23,31.85-33.14c0,0,3.33-1.74,1.21,2.69,0,0-14.18,25.66-16.28,37,0,0-2.79,10.13-3.58,10.32s-7.36,1.4-10.37,5.23c0,0-4.42,4.9-5.46,1.54S50.77,126.75,54.46,118Z"
       id="path69"
       style="fill:#494035;fill-opacity:1;stroke:none" />
    <path
       class="cls-4"
       d="M36.46,170.13s3.31-13.74,10.25-20.61c0,0,2.63-1,.14-18.78S45.58,98,42.75,101.8s-12.67,33.68-12.52,51.93C30.23,153.73,34.17,177.24,36.46,170.13Z"
       id="path71"
       style="fill:#494035;fill-opacity:1;stroke:none" />
    <path
       class="cls-4"
       d="M18.44,212.42a93,93,0,0,1,.45-41.16c5.42-22,5.16-13.45,5.16-13.45s4.2,31.51,9.48,39.45c0,0-6.74,16.16-6.5,30.51A36.87,36.87,0,0,1,18.44,212.42Z"
       id="path73"
       style="fill:#494035;fill-opacity:1;stroke:none" />
    <path
       class="cls-4"
       d="M26.46,284.26s-1.63-17.17,1.62-32c0,0-10.91-15.05-14.28-27.89s-3.7-.71-3.7-.71S4.87,271.52,26.46,284.26Z"
       id="path75"
       style="fill:#494035;fill-opacity:1;stroke:none" />
    <path
       class="cls-4"
       d="M38.07,334.21s-5.27-9.14-3.67-27.65c0,0-9.41-15.21-19.2-19.8,0,0-11.75-9.49-4.86,4.63C10.34,291.39,18.92,329.47,38.07,334.21Z"
       id="path77"
       style="fill:#494035;fill-opacity:1;stroke:none" />
    <path
       class="cls-4"
       d="M24.19,349s-7.86-8.59.67-6S48,345.9,52.1,358.28s7.22,19.46,11.15,21.12c0,0-14.9,3-23.66-5.46S28.93,352.62,24.19,349Z"
       id="path79"
       style="fill:#494035;fill-opacity:1;stroke:none" />
    <path
       class="cls-4"
       d="M44.63,390.49s23.31-9.06,36.94,4.18a57.67,57.67,0,0,0,23.55,21.24s6.09,3.88-6.92,3.63A51.73,51.73,0,0,1,57.83,403s-6-6.12-10.5-7.44S41.57,393.29,44.63,390.49Z"
       id="path81"
       style="fill:#494035;fill-opacity:1;stroke:none" />
    <path
       class="cls-4"
       d="M50,89a53.53,53.53,0,0,1,4.4-13c.95-2.1,2.08-4.1,3.2-6.11s2.43-3.91,3.74-5.8a84.43,84.43,0,0,1,8.85-10.57A134.86,134.86,0,0,1,80.47,44.3c3.57-2.88,7.33-5.49,11.15-8s7.8-4.74,11.89-6.77a166.2,166.2,0,0,1,25.3-10.15l.1.28a165.4,165.4,0,0,0-24.69,11.2c-4,2.13-7.78,4.58-11.53,7.07A133.37,133.37,0,0,0,82,46.15,129,129,0,0,0,63.78,65.81a110.39,110.39,0,0,0-7.5,11.12c-1.13,1.94-2.22,3.9-3.22,5.92A62.12,62.12,0,0,0,50.31,89Z"
       id="path83"
       style="fill:#494035;fill-opacity:1;stroke:none" />
    <path
       class="cls-4"
       d="M72.64,81.58a44.12,44.12,0,0,1,4.7-11.53,65.53,65.53,0,0,1,7.17-10.26,69.8,69.8,0,0,1,9-8.74,107.21,107.21,0,0,1,10.19-7.21,111.09,111.09,0,0,1,10.91-6c1.89-.85,3.75-1.75,5.68-2.5l2.88-1.17L126,33.14A149,149,0,0,1,150,27l.06.3a146.17,146.17,0,0,0-23.44,7.24l-2.84,1.15L120.94,37c-1.87.81-3.67,1.77-5.5,2.67A108.14,108.14,0,0,0,105,45.85,106.5,106.5,0,0,0,86.76,61.78a89.81,89.81,0,0,0-7.64,9.4c-1.17,1.65-2.28,3.34-3.32,5.09a50.7,50.7,0,0,0-2.88,5.4Z"
       id="path85"
       style="fill:#494035;fill-opacity:1;stroke:none" />
    <path
       class="cls-4"
       d="M93.08,78.48a48.17,48.17,0,0,1,6.34-10.16,67.81,67.81,0,0,1,8.35-8.68,71.82,71.82,0,0,1,20.67-12.2,83.38,83.38,0,0,1,11.42-3.66c1-.27,1.94-.47,2.91-.67s2-.42,2.94-.59c2-.28,3.93-.67,5.91-.84a110.35,110.35,0,0,1,23.76.15l0,.3a108.8,108.8,0,0,0-23.53,1c-1.95.24-3.86.69-5.78,1-1,.2-1.9.46-2.85.68s-1.9.46-2.83.76a81.91,81.91,0,0,0-11,4,73.21,73.21,0,0,0-10.23,5.55A110.25,110.25,0,0,0,109.69,62,89.67,89.67,0,0,0,93.34,78.62Z"
       id="path87"
       style="fill:#494035;fill-opacity:1;stroke:none" />
    <path
       class="cls-4"
       d="M85.43,109.23a51.66,51.66,0,0,1,3.91-9.34,74.65,74.65,0,0,1,5.34-8.64,71.17,71.17,0,0,1,14.21-14.48,69.37,69.37,0,0,1,17.5-10.16c.79-.33,1.58-.62,2.38-.87l2.4-.8c1.64-.42,3.24-.93,4.9-1.23a63.34,63.34,0,0,1,10-1.33l0,.3A64.62,64.62,0,0,0,127,68a67.62,67.62,0,0,0-16.56,10.63,70.45,70.45,0,0,0-7,6.93c-2.21,2.43-4.29,5-6.35,7.52A153.43,153.43,0,0,0,85.7,109.34Z"
       id="path89"
       style="fill:#494035;fill-opacity:1;stroke:none" />
    <path
       class="cls-4"
       d="M82.15,138.71a37.66,37.66,0,0,1,3.28-8.25c.69-1.31,1.42-2.6,2.23-3.85l1.21-1.87,1.31-1.8a72.6,72.6,0,0,1,12.48-12.6c1.15-.91,2.34-1.79,3.51-2.69.59-.44,1.16-.91,1.76-1.33l1.84-1.23c1.23-.81,2.43-1.65,3.68-2.43l3.82-2.21,1.91-1.09,2-1,4-1.93c2.66-1.21,5.41-2.23,8.11-3.34l.11.28-3.91,1.93c-1.3.66-2.64,1.23-3.9,2l-3.78,2.16-1.89,1.08-1.81,1.2-3.64,2.36c-1.19.83-2.33,1.72-3.49,2.58L109.17,108c-.57.44-1.11.93-1.66,1.39-1.1.94-2.21,1.85-3.29,2.8a137.89,137.89,0,0,0-11.68,12.63,108.15,108.15,0,0,0-10.11,14Z"
       id="path91"
       style="fill:#494035;fill-opacity:1;stroke:none" />
    <path
       class="cls-4"
       d="M524,345.62s14,28.66,2.48,49.62-32.83,30.55-32.83,30.55-8.82,7.52,18.62-44.85c0,0,8.61-16.07,8.87-26.63S521.45,339.23,524,345.62Z"
       id="path93"
       style="fill:#494035;fill-opacity:1;stroke:none" />
    <path
       class="cls-4"
       d="M537.58,311.7s16.46,17.64,13,38.29S534,385.8,534,385.8s-4.6,9.08,3.17-42c0,0,2.52-15.76.32-24.18S534.3,307.57,537.58,311.7Z"
       id="path95"
       style="fill:#494035;fill-opacity:1;stroke:none" />
    <path
       class="cls-4"
       d="M545.22,270.59s20.48,11,20.34,40-8.82,39.19-8.82,39.19-1.76.82-.73-19.72c0,0-.75-12-6.36-17.4s-2.19-30.41-2.19-30.41-.49-6.33-3-9C543,271.74,543.79,269.7,545.22,270.59Z"
       id="path97"
       style="fill:#494035;fill-opacity:1;stroke:none" />
    <path
       class="cls-4"
       d="M570.06,296.79c1.8-4.47,6.55-20-.41-46.36,0,0-5.28-17.7-23.87-21.87,0,0-2.68,1.09.1,5.2s7,15.18,9,29.72c0,0-.23,5.42,7.36,12.29,0,0,5.33,2.66,7.06,20.7C569.36,297,569.87,297.28,570.06,296.79Z"
       id="path99"
       style="fill:#494035;fill-opacity:1;stroke:none" />
    <path
       class="cls-4"
       d="M571.79,243.1s4.5-26.47-10.78-51.41c-7.91-10.64-13.2-10.07-26.7-5.63,0,0-2.4,1.27,2.56,4.12a9.16,9.16,0,0,1,3,2.68,61.06,61.06,0,0,1,8.2,16.85,20.3,20.3,0,0,0,3.29,6.5c2.32,2.89,6.25,7.1,11,9.49,0,0,5.13,3,8.14,14.55C570.49,240.25,571.27,248.75,571.79,243.1Z"
       id="path101"
       style="fill:#494035;fill-opacity:1;stroke:none" />
    <path
       class="cls-4"
       d="M566.06,187.13s1.13-19.89-17.79-38.37c0,0-11.8-12.86-27.5,4.19,0,0-1.72,3.61,3.71,5.2,0,0,10,4.35,15.87,13.92,0,0,3.69,3.57,10.72,2.86,0,0,9.25,1.12,13.7,11.37C564.77,186.3,565.69,190.64,566.06,187.13Z"
       id="path103"
       style="fill:#494035;fill-opacity:1;stroke:none" />
    <path
       class="cls-4"
       d="M549.54,116.29S540.07,92.43,518.34,82c0,0-3.25-1.8-1.17,2.79,0,0,13.88,26.57,15.93,38.29,0,0,2.73,10.49,3.51,10.68s7.21,1.46,10.15,5.42c0,0,4.34,5.07,5.35,1.6S553.15,125.39,549.54,116.29Z"
       id="path105"
       style="fill:#494035;fill-opacity:1;stroke:none" />
    <path
       class="cls-4"
       d="M567.17,170.3s-3.25-14.22-10-21.33c0,0-2.58-1-.15-19.45s1.25-33.91,4-30,12.41,34.87,12.27,53.76C573.27,153.32,569.41,177.66,567.17,170.3Z"
       id="path107"
       style="fill:#494035;fill-opacity:1;stroke:none" />
    <path
       class="cls-4"
       d="M584.81,214.07a101.4,101.4,0,0,0-.45-42.6c-5.3-22.76-5.05-13.93-5.05-13.93s-4.11,32.63-9.28,40.84c0,0,6.6,16.74,6.37,31.59A38.65,38.65,0,0,0,584.81,214.07Z"
       id="path109"
       style="fill:#494035;fill-opacity:1;stroke:none" />
    <path
       class="cls-4"
       d="M577,288.44s1.59-17.78-1.6-33.18c0,0,10.69-15.57,14-28.87s3.62-.73,3.62-.73S598.1,275.26,577,288.44Z"
       id="path111"
       style="fill:#494035;fill-opacity:1;stroke:none" />
    <path
       class="cls-4"
       d="M565.59,340.15s5.16-9.47,3.59-28.62c0,0,9.22-15.75,18.8-20.5,0,0,11.51-9.82,4.76,4.8C592.74,295.83,584.34,335.24,565.59,340.15Z"
       id="path113"
       style="fill:#494035;fill-opacity:1;stroke:none" />
    <path
       class="cls-4"
       d="M579.18,355.46s7.69-8.89-.66-6.26-22.64,3.05-26.67,15.87-7.07,20.14-10.92,21.86c0,0,14.59,3.11,23.17-5.65S574.54,359.21,579.18,355.46Z"
       id="path115"
       style="fill:#494035;fill-opacity:1;stroke:none" />
    <path
       class="cls-4"
       d="M558.41,405.13s-23.32-9.58-36.95,4.41A59.2,59.2,0,0,1,497.91,432s-6.09,4.1,6.93,3.84c0,0,22.58,2.56,40.37-17.53,0,0,6-6.47,10.5-7.86S561.47,408.08,558.41,405.13Z"
       id="path117"
       style="fill:#494035;fill-opacity:1;stroke:none" />
    <path
       class="cls-4"
       d="M552.88,87.61a63.53,63.53,0,0,0-2.72-6.49c-1-2.13-2.07-4.2-3.19-6.24a120.46,120.46,0,0,0-7.45-11.82A136.63,136.63,0,0,0,521.24,42a132.34,132.34,0,0,0-22.63-16.56,162.61,162.61,0,0,0-25.42-12.18l.1-.28a163.87,163.87,0,0,1,26.06,11.15,138.22,138.22,0,0,1,12.15,7.41,141.47,141.47,0,0,1,11.33,8.67c7.17,6.24,14,13.12,19.17,21.17a86.49,86.49,0,0,1,6.86,12.57,57.72,57.72,0,0,1,4.31,13.6Z"
       id="path119"
       style="fill:#494035;fill-opacity:1;stroke:none" />
    <path
       class="cls-4"
       d="M530.11,78.66a52.94,52.94,0,0,0-2.81-5.58c-1-1.81-2.11-3.57-3.24-5.3a94.48,94.48,0,0,0-7.49-9.84,107.63,107.63,0,0,0-18-16.87A112.27,112.27,0,0,0,488,34.39,120.84,120.84,0,0,0,476.82,29,140.55,140.55,0,0,0,453,21.19l.06-.3a142,142,0,0,1,24.3,6.67A123,123,0,0,1,489,32.67a115.69,115.69,0,0,1,11,6.43,109.49,109.49,0,0,1,10.14,7.7A70.13,70.13,0,0,1,518.89,56a68.31,68.31,0,0,1,7,10.68,46.7,46.7,0,0,1,4.53,11.87Z"
       id="path121"
       style="fill:#494035;fill-opacity:1;stroke:none" />
    <path
       class="cls-4"
       d="M509.69,75.43a94.18,94.18,0,0,0-16-17.41,113.29,113.29,0,0,0-9.35-7.15c-1.61-1.13-3.29-2.15-5-3.17s-3.45-1.91-5.23-2.74a77.29,77.29,0,0,0-11-4.3c-1.88-.64-3.82-1-5.73-1.57l-2.91-.6-1.46-.3L451.51,38a103.66,103.66,0,0,0-23.82-1.11l0-.29a104.17,104.17,0,0,1,24.07-.08l1.5.18,1.49.24,3,.5c2,.46,4,.81,5.91,1.39a79.53,79.53,0,0,1,11.48,4,70.75,70.75,0,0,1,20.55,13,68.66,68.66,0,0,1,8.16,9.06A49.7,49.7,0,0,1,510,75.29Z"
       id="path123"
       style="fill:#494035;fill-opacity:1;stroke:none" />
    <path
       class="cls-4"
       d="M517.33,107.91a166.33,166.33,0,0,0-11.17-17C502.09,85.6,498,80.26,493,75.71c-1.22-1.16-2.52-2.22-3.81-3.31s-2.65-2.07-4.05-3-2.82-1.84-4.25-2.73-2.94-1.66-4.48-2.36A61.32,61.32,0,0,0,457,58.58l0-.3a59.5,59.5,0,0,1,10.18,1.48l1.26.28,1.24.36c.83.24,1.66.46,2.48.72,1.62.59,3.27,1.12,4.85,1.83s3.14,1.45,4.69,2.21,3.05,1.65,4.49,2.61,2.89,1.92,4.31,2.91,2.76,2.09,4.07,3.23a74.1,74.1,0,0,1,14,15.28,81.24,81.24,0,0,1,5.21,9,55.37,55.37,0,0,1,3.79,9.63Z"
       id="path125"
       style="fill:#494035;fill-opacity:1;stroke:none" />
    <path
       class="cls-4"
       d="M520.61,139.07a117.69,117.69,0,0,0-10-14.69c-.89-1.16-1.8-2.32-2.76-3.43s-1.82-2.31-2.82-3.4-1.89-2.26-2.92-3.32l-3.1-3.16c-1.05-1-2.19-2-3.28-3l-1.65-1.49-1.75-1.37-3.5-2.75L485.19,100l-1.83-1.27c-.62-.41-1.27-.77-1.9-1.16l-3.83-2.3a20.72,20.72,0,0,0-2-1.08l-2-1-4-2.06.12-.28c2.74,1.2,5.54,2.3,8.24,3.62l4,2.07c.67.35,1.35.68,2,1L486,98.7l3.86,2.37,3.7,2.61,1.84,1.31,1.77,1.43c1.16,1,2.37,1.87,3.5,2.88a73.72,73.72,0,0,1,12.39,13.3,60.86,60.86,0,0,1,4.66,7.84,40.54,40.54,0,0,1,3.18,8.53Z"
       id="path127"
       style="fill:#494035;fill-opacity:1;stroke:none" />
    <path
       class="cls-4"
       d="M195.26,137.05h1.79a13.12,13.12,0,0,0,1.53-.07,1.71,1.71,0,0,0,1-.39,2,2,0,0,0,.57-1,9.94,9.94,0,0,0,.27-1.9h1v8.09h-1a12.73,12.73,0,0,0-.23-2,2.19,2.19,0,0,0-.54-1.09,1.7,1.7,0,0,0-1-.46,10,10,0,0,0-1.6-.1h-1.79v8.64h3.62c.71,0,1.33,0,1.87-.08a5.91,5.91,0,0,0,1.41-.3,3,3,0,0,0,1-.62,3.38,3.38,0,0,0,.75-1,7.54,7.54,0,0,0,.53-1.53c.15-.6.28-1.32.41-2.14h1l-.28,6.79h-15.7v-1.1h2.73V129.13h-2.73V128h15.36l.28,5.48h-1a12.73,12.73,0,0,0-.51-2.22,3.15,3.15,0,0,0-.84-1.34,3,3,0,0,0-1.41-.66,12,12,0,0,0-2.19-.17h-4.33Z"
       id="path129"
       style="fill:#494035;fill-opacity:1;stroke:none" />
    <path
       class="cls-4"
       d="M209.2,142h1a8.74,8.74,0,0,0,.6,2.6,4.87,4.87,0,0,0,1.11,1.65,3.87,3.87,0,0,0,1.52.87,6.28,6.28,0,0,0,1.81.25,5.66,5.66,0,0,0,2-.29,3.42,3.42,0,0,0,1.34-.8,2.92,2.92,0,0,0,.77-1.23,4.9,4.9,0,0,0,.24-1.58,3.76,3.76,0,0,0-.36-1.75,3.38,3.38,0,0,0-1-1.18,6.62,6.62,0,0,0-1.52-.84c-.59-.24-1.25-.48-2-.74s-1.38-.52-2-.8a7.09,7.09,0,0,1-1.7-1.06,4.66,4.66,0,0,1-1.17-1.53,5.25,5.25,0,0,1-.43-2.27,6.42,6.42,0,0,1,.41-2.32,4.87,4.87,0,0,1,1.22-1.8,5.45,5.45,0,0,1,2-1.15,8.43,8.43,0,0,1,2.78-.41c.42,0,.86,0,1.3.06s.89.1,1.34.18.87.18,1.3.3a12.54,12.54,0,0,1,1.22.37l.16,5h-1a7.35,7.35,0,0,0-.54-2.4,4.23,4.23,0,0,0-1-1.46,3.38,3.38,0,0,0-1.36-.72,5.92,5.92,0,0,0-1.52-.2,5.74,5.74,0,0,0-1.81.25,3.37,3.37,0,0,0-1.27.73,2.86,2.86,0,0,0-.76,1.15,4.25,4.25,0,0,0-.25,1.52,3.54,3.54,0,0,0,.36,1.68,3.44,3.44,0,0,0,1,1.16,7.15,7.15,0,0,0,1.56.86c.6.25,1.27.51,2,.78s1.32.53,2,.82a6.64,6.64,0,0,1,1.73,1.08,4.9,4.9,0,0,1,1.22,1.6,5.34,5.34,0,0,1,.46,2.36,5.85,5.85,0,0,1-.47,2.43,4.7,4.7,0,0,1-1.35,1.79A6.34,6.34,0,0,1,217.9,148a10.18,10.18,0,0,1-2.87.38,16.88,16.88,0,0,1-2.92-.27c-.49-.09-1-.2-1.43-.32a10.46,10.46,0,0,1-1.3-.41Z"
       id="path131"
       style="fill:#494035;fill-opacity:1;stroke:none" />
    <path
       class="cls-4"
       d="M224.32,128h16l.32,5.89h-.95a14.35,14.35,0,0,0-.5-2.47,3.29,3.29,0,0,0-.85-1.46,3,3,0,0,0-1.43-.69,11.19,11.19,0,0,0-2.2-.18h-1.11v17.68h3v1.1H228v-1.1h3V129.13h-1c-.6,0-1.12,0-1.57.07a4.85,4.85,0,0,0-1.2.26,2.61,2.61,0,0,0-.88.54,2.64,2.64,0,0,0-.63.87,6.43,6.43,0,0,0-.45,1.29,17.44,17.44,0,0,0-.32,1.77h-.95Z"
       id="path133"
       style="fill:#494035;fill-opacity:1;stroke:none" />
    <path
       class="cls-4"
       d="M336.19,146.93c1.08-.94,2.05-1.8,2.91-2.59s1.62-1.54,2.28-2.24a19.52,19.52,0,0,0,1.7-2,12.21,12.21,0,0,0,1.15-2,9.58,9.58,0,0,0,.66-2.09,12.56,12.56,0,0,0,.22-2.37,8.86,8.86,0,0,0-.27-2.43,3.87,3.87,0,0,0-.7-1.41,2.11,2.11,0,0,0-1-.66,3.69,3.69,0,0,0-1.09-.16,4.37,4.37,0,0,0-1.7.33,4,4,0,0,0-1.39,1,3.77,3.77,0,0,1,.61,1.11,3.89,3.89,0,0,1,.2,1.17,2.22,2.22,0,0,1-.4,1.34,1.36,1.36,0,0,1-1.17.56,1.7,1.7,0,0,1-.64-.13,1.43,1.43,0,0,1-.52-.39,1.84,1.84,0,0,1-.35-.65,2.65,2.65,0,0,1-.13-.89,4,4,0,0,1,.41-1.77,4.71,4.71,0,0,1,1.17-1.55A5.58,5.58,0,0,1,340,128a6.48,6.48,0,0,1,2.39-.41,6.11,6.11,0,0,1,2.32.41,4.75,4.75,0,0,1,1.73,1.16,5.05,5.05,0,0,1,1.09,1.84,7.36,7.36,0,0,1,.37,2.42,8.65,8.65,0,0,1-.27,2.19,10.55,10.55,0,0,1-.74,2,11.56,11.56,0,0,1-1.13,1.83,20.23,20.23,0,0,1-1.4,1.69c-.5.55-1,1.08-1.57,1.6l-1.65,1.52-1.22,1.1,0,.08h4.48a7.37,7.37,0,0,0,1.48-.11,1.42,1.42,0,0,0,.86-.5,2.6,2.6,0,0,0,.48-1.12q.17-.73.33-2h1l-.29,6.44H336.19Z"
       id="path135"
       style="fill:#494035;fill-opacity:1;stroke:none" />
    <path
       class="cls-4"
       d="M358.59,148.62a5.48,5.48,0,0,1-2.82-.72,6.2,6.2,0,0,1-2.08-2.06,10.82,10.82,0,0,1-1.29-3.25,21.27,21.27,0,0,1,0-8.75,10.75,10.75,0,0,1,1.38-3.36,6.63,6.63,0,0,1,2.19-2.13,5.56,5.56,0,0,1,2.87-.75,5.42,5.42,0,0,1,2.79.72,6.08,6.08,0,0,1,2.07,2.06,10.82,10.82,0,0,1,1.29,3.25,19.35,19.35,0,0,1,.44,4.28,19.73,19.73,0,0,1-.43,4.29,11.58,11.58,0,0,1-1.3,3.39,6.57,6.57,0,0,1-2.15,2.23A5.57,5.57,0,0,1,358.59,148.62Zm.06-1.36a4.48,4.48,0,0,0,1.13-.14,2.46,2.46,0,0,0,1-.54,3.37,3.37,0,0,0,.8-1,6.72,6.72,0,0,0,.6-1.69,18.94,18.94,0,0,0,.37-2.47c.08-.95.13-2.08.13-3.37a30.07,30.07,0,0,0-.28-4.6,9.54,9.54,0,0,0-.77-2.76,2.74,2.74,0,0,0-1.22-1.34,3.48,3.48,0,0,0-1.6-.35,3.9,3.9,0,0,0-1.65.35,2.88,2.88,0,0,0-1.26,1.37,9.48,9.48,0,0,0-.81,2.82,31.38,31.38,0,0,0-.29,4.71c0,1.25,0,2.35.12,3.29a18,18,0,0,0,.36,2.41,6.81,6.81,0,0,0,.57,1.66,3.48,3.48,0,0,0,.76,1,2.57,2.57,0,0,0,.95.53A4.46,4.46,0,0,0,358.65,147.26Z"
       id="path137"
       style="fill:#494035;fill-opacity:1;stroke:none" />
    <path
       class="cls-4"
       d="M368.2,146.93c1.07-.94,2-1.8,2.9-2.59s1.62-1.54,2.29-2.24a19.35,19.35,0,0,0,1.69-2,11.59,11.59,0,0,0,1.16-2,9.58,9.58,0,0,0,.66-2.09,12.59,12.59,0,0,0,.21-2.37,8.86,8.86,0,0,0-.27-2.43,3.87,3.87,0,0,0-.69-1.41,2.11,2.11,0,0,0-1-.66,3.74,3.74,0,0,0-1.09-.16,4.33,4.33,0,0,0-1.7.33,3.8,3.8,0,0,0-1.39,1,4,4,0,0,1,.6,1.11,3.62,3.62,0,0,1,.21,1.17,2.22,2.22,0,0,1-.41,1.34,1.36,1.36,0,0,1-1.17.56,1.74,1.74,0,0,1-.64-.13,1.52,1.52,0,0,1-.52-.39,2.23,2.23,0,0,1-.35-.65,2.93,2.93,0,0,1-.13-.89,4.16,4.16,0,0,1,.41-1.77,5,5,0,0,1,1.17-1.55A5.74,5.74,0,0,1,372,128a6.48,6.48,0,0,1,2.39-.41,6,6,0,0,1,2.31.41,4.88,4.88,0,0,1,1.74,1.16,5.18,5.18,0,0,1,1.08,1.84,7.36,7.36,0,0,1,.38,2.42,8.65,8.65,0,0,1-.27,2.19,10.58,10.58,0,0,1-.75,2,11.5,11.5,0,0,1-1.12,1.83,20.23,20.23,0,0,1-1.4,1.69c-.5.55-1,1.08-1.57,1.6s-1.1,1-1.66,1.52l-1.21,1.1,0,.08h4.49a7.2,7.2,0,0,0,1.47-.11,1.42,1.42,0,0,0,.87-.5,2.6,2.6,0,0,0,.47-1.12q.17-.73.33-2h1l-.29,6.44H368.2Z"
       id="path139"
       style="fill:#494035;fill-opacity:1;stroke:none" />
    <path
       class="cls-4"
       d="M389,128.1v18.64h3v1.39h-8.55v-1.39h3V129.5h-3.28v-1.4Z"
       id="path141"
       style="fill:#494035;fill-opacity:1;stroke:none" />
    <path
       class="cls-4"
       d="M427.77,368.59s-1.59,19.75-13.95,28-26.25,7.35-26.25,7.35-6.84,1.6,23.33-19.28c0,0,9.36-6.35,12.73-12.07S428.41,364.34,427.77,368.59Z"
       id="path143"
       style="fill:#494035;fill-opacity:1;stroke:none" />
    <path
       class="cls-4"
       d="M445.15,353.86s3.05,14.41-5.08,24.75a52.86,52.86,0,0,1-19.49,14.91s-5.15,3.67,14.53-22.17c0,0,6.12-7.93,7.58-13.19S444.73,350.65,445.15,353.86Z"
       id="path145"
       style="fill:#494035;fill-opacity:1;stroke:none" />
    <path
       class="cls-4"
       d="M461.69,333.48s7.15,11.93-1.82,27.82-16.56,19-16.56,19-1.16-.05,5.67-11c0,0,3.29-6.8,2.07-11.38s8.2-17.33,8.2-17.33,1.69-3.61,1.23-5.78C460.21,333.48,461.23,332.58,461.69,333.48Z"
       id="path147"
       style="fill:#494035;fill-opacity:1;stroke:none" />
    <path
       class="cls-4"
       d="M466.43,355c2.29-1.94,9.49-9.09,14-25.58,0,0,2.71-11.24-5.57-18.86,0,0-1.71-.17-1.54,2.88s-1.07,10.34-4.49,18.91c0,0-1.78,2.91,0,8.86,0,0,1.92,3-2.72,13.4C466,354.93,466.18,355.21,466.43,355Z"
       id="path149"
       style="fill:#494035;fill-opacity:1;stroke:none" />
    <path
       class="cls-4"
       d="M483.79,326s10.43-13.24,10.22-31.32c-.8-8.12-3.69-9.33-12-10.77,0,0-1.63,0,.05,3a5.55,5.55,0,0,1,.72,2.34,39.71,39.71,0,0,1-1,11.6,13.31,13.31,0,0,0-.3,4.52,21.59,21.59,0,0,0,2.73,8.36s1.72,3.13-.28,10.33C484,324.07,481.79,329,483.79,326Z"
       id="path151"
       style="fill:#494035;fill-opacity:1;stroke:none" />
    <path
       class="cls-4"
       d="M498,293.63s6.69-10.59,2.62-26.18c0,0-2.11-10.45-15.42-5.6,0,0-2,1.49.31,3.92A23.36,23.36,0,0,1,489.41,278a7.86,7.86,0,0,0,4.64,4.65s4.41,3.27,3.55,10.17C497.6,292.8,496.74,295.45,498,293.63Z"
       id="path153"
       style="fill:#494035;fill-opacity:1;stroke:none" />
    <path
       class="cls-4"
       d="M511.25,250s2.45-15.81-5.52-27.79c0,0-1.12-1.93-1.46,1.19,0,0-1,18.58-3.55,25.6,0,0-1.81,6.55-1.47,6.88s3.26,2.87,3.56,5.89c0,0,.67,4,2.25,2.41S510.31,256,511.25,250Z"
       id="path155"
       style="fill:#494035;fill-opacity:1;stroke:none" />
    <path
       class="cls-4"
       d="M503.74,284.71s2.7-8.74,1.38-14.6c0,0-1-1.31,5.9-10.72s11.05-18.26,11.26-15.3-4.32,22.72-10.19,33C512.09,277.14,502.64,289.39,503.74,284.71Z"
       id="path157"
       style="fill:#494035;fill-opacity:1;stroke:none" />
    <path
       class="cls-4"
       d="M499.39,313.82a68.28,68.28,0,0,0,12.84-23.53c4.25-14,1.67-9.1,1.67-9.1S501.78,297.92,496.6,301c0,0-1.74,11.09-6.41,19.18A25,25,0,0,0,499.39,313.82Z"
       id="path159"
       style="fill:#494035;fill-opacity:1;stroke:none" />
    <path
       class="cls-4"
       d="M472.53,352.4s6.28-9.31,9.36-18.68c0,0,10.27-5.48,16.05-11.83s2.09.63,2.09.63S487.45,351.23,472.53,352.4Z"
       id="path161"
       style="fill:#494035;fill-opacity:1;stroke:none" />
    <path
       class="cls-4"
       d="M450.82,377.52s5.56-3.71,10.63-14.68c0,0,9.57-6,15.95-5.86,0,0,8.94-2.08,1,4C478.38,361,462,380.22,450.82,377.52Z"
       id="path163"
       style="fill:#494035;fill-opacity:1;stroke:none" />
    <path
       class="cls-4"
       d="M453.12,389.84s6.68-2.68,1.58-3.63-12.58-4.83-18.59,1.05-9.81,9-12.32,8.87c0,0,6.55,5.89,13.65,3.55S449.58,390.56,453.12,389.84Z"
       id="path165"
       style="fill:#494035;fill-opacity:1;stroke:none" />
    <path
       class="cls-4"
       d="M427.2,411.14s-9.05-12-20.35-8.19a36.28,36.28,0,0,1-19,5.57s-4.39.5,2.38,4.1c0,0,10.82,7.89,26.13,2,0,0,5.08-1.83,7.82-1.3S427.86,413.64,427.2,411.14Z"
       id="path167"
       style="fill:#494035;fill-opacity:1;stroke:none" />
    <path
       class="cls-4"
       d="M521.71,235.18a84.54,84.54,0,0,0,.48-8.52c-.05-1.41,0-2.82-.09-4.22l-.09-2.11c0-.7-.13-1.4-.19-2.09-.11-1.4-.22-2.8-.43-4.19s-.27-2.79-.54-4.17-.39-2.78-.71-4.15l-1-4.12c-.37-1.36-.86-2.68-1.28-4-.23-.67-.43-1.35-.67-2l-.81-2c-.55-1.3-1.07-2.62-1.65-3.92l-1.94-3.79-1-1.9-1.11-1.83-2.22-3.65a18.39,18.39,0,0,0-1.21-1.77L506.06,175l-2.5-3.49.23-.2c1.82,2.21,3.75,4.37,5.48,6.67l2.49,3.53,1.25,1.78,1.1,1.87,2.18,3.75c.67,1.29,1.26,2.61,1.9,3.92l.94,2c.28.67.52,1.35.79,2,.51,1.36,1.08,2.7,1.53,4.08a58.78,58.78,0,0,1,3.36,17.16,42.15,42.15,0,0,1-2.81,17.2Z"
       id="path169"
       style="fill:#494035;fill-opacity:1;stroke:none" />
    <path
       class="cls-4"
       d="M512.75,223.72a69.41,69.41,0,0,0-.15-7.51c-.15-1.24-.18-2.47-.4-3.69l-.23-1.84c-.09-.61-.23-1.21-.34-1.82a77,77,0,0,0-3.79-14.28l-1.54-3.39a28.89,28.89,0,0,0-1.73-3.31c-.63-1.07-1.19-2.2-1.88-3.24l-2.13-3.09c-.35-.52-.68-1.06-1.06-1.55l-1.19-1.47-2.37-2.93c-.8-1-1.72-1.84-2.57-2.77l-2.61-2.75.2-.23c1.88,1.69,3.83,3.34,5.66,5.12l2.62,2.78,1.31,1.4c.43.47.8,1,1.21,1.49l2.36,3c.77,1,1.41,2.13,2.13,3.2a30.79,30.79,0,0,1,2,3.31l1.81,3.42a47.22,47.22,0,0,1,4.56,14.83A33.58,33.58,0,0,1,513,223.8Z"
       id="path171"
       style="fill:#494035;fill-opacity:1;stroke:none" />
    <path
       class="cls-4"
       d="M503.24,216.09a74.49,74.49,0,0,0-3.33-13.72,59.76,59.76,0,0,0-5.74-12.68,42.39,42.39,0,0,0-4.23-5.6,47.06,47.06,0,0,0-5.06-4.92,59.12,59.12,0,0,0-11.94-7.76l.12-.27A56.45,56.45,0,0,1,485.81,178a48.34,48.34,0,0,1,5.55,4.77,44,44,0,0,1,4.79,5.58,51.83,51.83,0,0,1,4,6.25,33.75,33.75,0,0,1,2.68,6.91,36.86,36.86,0,0,1,1.19,7.28,26.85,26.85,0,0,1-.43,7.33Z"
       id="path173"
       style="fill:#494035;fill-opacity:1;stroke:none" />
    <path
       class="cls-4"
       d="M497.2,236.12c-.28-4.18-.57-8.24-1.05-12.26a87.63,87.63,0,0,0-1.88-12,39.28,39.28,0,0,0-4.77-11.1,34.54,34.54,0,0,0-8.17-9.06l.17-.25a33.82,33.82,0,0,1,9.24,8.46,41.49,41.49,0,0,1,5.83,11.25c.69,2,1.28,4,1.77,6.12a33.53,33.53,0,0,1,.8,6.31,43.28,43.28,0,0,1-.28,6.34,29.4,29.4,0,0,1-1.36,6.19Z"
       id="path175"
       style="fill:#494035;fill-opacity:1;stroke:none" />
    <path
       class="cls-4"
       d="M489.33,254.17c-.13-1.84-.31-3.64-.47-5.42-.14-.89-.17-1.78-.32-2.66s-.19-1.77-.36-2.64l-.72-5.26c-.14-.88-.25-1.76-.4-2.64l-.57-2.61c-.18-.87-.48-1.72-.71-2.58s-.49-1.72-.81-2.56l-.92-2.53c-.34-.83-.71-1.64-1.07-2.47-.65-1.68-1.55-3.25-2.35-4.87-.39-.82-.91-1.56-1.36-2.35l-1.38-2.35.24-.18c1.1,1.46,2.27,2.87,3.29,4.4s2.06,3.05,2.9,4.68c.44.82.89,1.62,1.31,2.44l1.15,2.52c.41.84.73,1.7,1.06,2.57s.69,1.72,1,2.61a38.79,38.79,0,0,1,2.38,10.91,27.12,27.12,0,0,1-1.55,11Z"
       id="path177"
       style="fill:#494035;fill-opacity:1;stroke:none" />
    <path
       class="cls-4"
       d="M148,351.54s-3.23,19.94,7.11,31.06,24.41,13.64,24.41,13.64,6.44,3.24-18.59-24.74c0,0-7.79-8.56-9.76-15S148.38,347.19,148,351.54Z"
       id="path179"
       style="fill:#494035;fill-opacity:1;stroke:none" />
    <path
       class="cls-4"
       d="M134.22,332.75s-6.56,13.52-1,25.73A54.23,54.23,0,0,0,149.08,378s4.25,4.87-9.1-25.47c0,0-4.18-9.33-4.35-14.89S135.42,329.68,134.22,332.75Z"
       id="path181"
       style="fill:#494035;fill-opacity:1;stroke:none" />
    <path
       class="cls-4"
       d="M122.68,308.57s-10,10.07-5,28,11.9,22.81,11.9,22.81,1.17.23-3-12.3c0,0-1.62-7.54.72-11.77s-4-19.14-4-19.14-.8-4,.18-6C124.16,308.93,123.36,307.79,122.68,308.57Z"
       id="path183"
       style="fill:#494035;fill-opacity:1;stroke:none" />
    <path
       class="cls-4"
       d="M112.71,328.71c-1.82-2.47-7.27-11.3-7.75-28.71,0,0,0-11.78,10.15-17.31,0,0,1.76.24.84,3.22s-1.45,10.49-.13,19.81c0,0,1.07,3.31-2.18,8.76,0,0-2.65,2.5-.55,13.92C113.16,328.75,112.9,329,112.71,328.71Z"
       id="path185"
       style="fill:#494035;fill-opacity:1;stroke:none" />
    <path
       class="cls-4"
       d="M102.44,295.81s-7.18-15.63-2.57-33.48c2.78-7.83,6-8.33,14.6-7.73,0,0,1.63.4-.78,3a5.79,5.79,0,0,0-1.29,2.13,39.86,39.86,0,0,0-1.88,11.72,13.39,13.39,0,0,1-.8,4.55,22,22,0,0,1-4.77,7.61s-2.47,2.67-2.24,10.28C102.71,293.84,103.72,299.22,102.44,295.81Z"
       id="path187"
       style="fill:#494035;fill-opacity:1;stroke:none" />
    <path
       class="cls-4"
       d="M96.14,260.32s-4.09-12.11,3.77-26.54c0,0,4.66-9.83,16.76-1.8,0,0,1.62,2-1.27,3.8a23.81,23.81,0,0,0-6.86,11.13,8,8,0,0,1-5.76,3.48s-5.2,2.17-6,9.21C96.75,259.6,97,262.43,96.14,260.32Z"
       id="path189"
       style="fill:#494035;fill-opacity:1;stroke:none" />
    <path
       class="cls-4"
       d="M93.57,213.91s1.41-16.25,12.28-26.17c0,0,1.59-1.63,1.17,1.54,0,0-3.52,18.63-2.7,26.2,0,0,.22,6.91-.2,7.16s-4,2-5,5c0,0-1.65,3.83-2.84,1.84S93,220.11,93.57,213.91Z"
       id="path191"
       style="fill:#494035;fill-opacity:1;stroke:none" />
    <path
       class="cls-4"
       d="M92.59,250.09s-.56-9.3,2.18-14.78c0,0,1.33-1.05-3.26-12S84.93,202.52,84,205.41s-1.23,23.52,2.11,35.17C86.11,240.58,92.56,255,92.59,250.09Z"
       id="path193"
       style="fill:#494035;fill-opacity:1;stroke:none" />
    <path
       class="cls-4"
       d="M89.85,280a69,69,0,0,1-7.09-26.4c-.82-14.91.55-9.41.55-9.41s8,19.5,12.45,23.76c0,0-1,11.39,1.73,20.53A25.38,25.38,0,0,1,89.85,280Z"
       id="path195"
       style="fill:#494035;fill-opacity:1;stroke:none" />
    <path
       class="cls-4"
       d="M107.24,324.66s-4-10.73-4.78-20.76c0,0-8.92-7.92-13.14-15.61s-2.24.13-2.24.13S92.64,319.88,107.24,324.66Z"
       id="path197"
       style="fill:#494035;fill-opacity:1;stroke:none" />
    <path
       class="cls-4"
       d="M122.79,354.79s-4.64-5-7-17.11c0,0-8.09-8.26-14.5-9.67,0,0-8.41-4.23-2,3.72C99.31,331.73,111,354.75,122.79,354.79Z"
       id="path199"
       style="fill:#494035;fill-opacity:1;stroke:none" />
    <path
       class="cls-4"
       d="M117.5,366.42s-6-4.27-.7-4,13.74-1.73,18.3,5.55,7.59,11.32,10.14,11.76c0,0-8,4.25-14.49.21S120.86,368,117.5,366.42Z"
       id="path201"
       style="fill:#494035;fill-opacity:1;stroke:none" />
    <path
       class="cls-4"
       d="M138.18,393.8s11.95-9.64,22.31-3.17a37.29,37.29,0,0,0,17.61,10.12s4.26,1.57-3.38,3.48c0,0-12.73,5.19-26.57-4.39,0,0-4.62-3-7.48-3.19S136.9,396.11,138.18,393.8Z"
       id="path203"
       style="fill:#494035;fill-opacity:1;stroke:none" />
    <path
       class="cls-4"
       d="M86.43,196.74A43.09,43.09,0,0,1,87.86,179a60.4,60.4,0,0,1,7.54-16.17c.8-1.26,1.69-2.45,2.53-3.67.43-.61.84-1.23,1.29-1.82l1.41-1.71c1-1.14,1.87-2.31,2.85-3.41l3.08-3.19,1.55-1.58,1.68-1.45,3.34-2.89c2.28-1.85,4.72-3.51,7.07-5.25l.18.25L117,141l-1.68,1.41c-.55.47-1.12.92-1.63,1.45l-3.1,3.07-1.56,1.53-1.42,1.65-2.86,3.28c-.9,1.13-1.74,2.32-2.61,3.47l-1.29,1.74c-.41.6-.77,1.22-1.16,1.83-.75,1.23-1.56,2.43-2.27,3.68l-2,3.84c-.66,1.27-1.15,2.63-1.73,3.94s-1,2.67-1.56,4c-.26.67-.54,1.33-.77,2l-.68,2c-.23.68-.5,1.35-.7,2l-.6,2.07c-.47,1.36-.73,2.77-1.13,4.17a85.56,85.56,0,0,0-1.57,8.56Z"
       id="path205"
       style="fill:#494035;fill-opacity:1;stroke:none" />
    <path
       class="cls-4"
       d="M98.17,187.56a34.16,34.16,0,0,1,2.24-15.6c1.81-5,4.89-9.47,8.17-13.58a70,70,0,0,1,5.43-5.73c1-.88,1.88-1.83,2.9-2.65l3.09-2.42c.52-.4,1-.82,1.56-1.18l1.65-1.06,3.28-2.12c2.25-1.31,4.59-2.46,6.87-3.68l.14.27-3.26,2.09c-1.08.7-2.21,1.33-3.24,2.09l-3.08,2.33-1.54,1.16c-.5.39-1,.85-1.44,1.27l-2.88,2.54c-1,.85-1.78,1.83-2.67,2.74a65,65,0,0,0-4.91,5.83,78.23,78.23,0,0,0-7.29,13.22c-.26.58-.54,1.14-.78,1.72l-.68,1.77c-.52,1.16-.85,2.37-1.3,3.57a69,69,0,0,0-2,7.42Z"
       id="path207"
       style="fill:#494035;fill-opacity:1;stroke:none" />
    <path
       class="cls-4"
       d="M109.53,182.27a27.67,27.67,0,0,1,1.39-7.38,37.65,37.65,0,0,1,3-6.94,34.24,34.24,0,0,1,4.38-6.18,50.86,50.86,0,0,1,5.46-5.23,45.17,45.17,0,0,1,6.14-4.35,50.22,50.22,0,0,1,6.68-3.35,58.07,58.07,0,0,1,14.34-3.68l.06.3a61,61,0,0,0-13.78,4.75,47.26,47.26,0,0,0-6.25,3.62,43.51,43.51,0,0,0-5.6,4.51,60.25,60.25,0,0,0-8.86,11.15,74.09,74.09,0,0,0-6.65,12.83Z"
       id="path209"
       style="fill:#494035;fill-opacity:1;stroke:none" />
    <path
       class="cls-4"
       d="M110.67,203.58a30.4,30.4,0,0,1,.17-6.47,44.39,44.39,0,0,1,1.29-6.35,34.07,34.07,0,0,1,2.35-6.06,61.87,61.87,0,0,1,3.26-5.63,41.91,41.91,0,0,1,8.55-9.7,34.89,34.89,0,0,1,11.24-6.11l.11.29a35.35,35.35,0,0,0-10.35,6.94,40.06,40.06,0,0,0-7.5,9.82A88.18,88.18,0,0,0,115,191.69c-1.46,3.87-2.73,7.83-4,11.91Z"
       id="path211"
       style="fill:#494035;fill-opacity:1;stroke:none" />
    <path
       class="cls-4"
       d="M114.13,223.36A27.63,27.63,0,0,1,115.32,212a40,40,0,0,1,5-10.22c.48-.82,1.06-1.57,1.59-2.35a26.76,26.76,0,0,1,1.68-2.28l1.76-2.22c.62-.71,1.26-1.39,1.89-2.09,1.24-1.42,2.68-2.63,4-3.93s2.9-2.37,4.34-3.54l.19.23-2,2c-.64.67-1.34,1.27-1.93,2-1.19,1.41-2.47,2.74-3.54,4.24-.56.73-1.13,1.45-1.67,2.18l-1.53,2.29a25.13,25.13,0,0,0-1.44,2.33c-.45.79-1,1.55-1.35,2.38l-1.2,2.44c-.37.83-.7,1.68-1,2.52l-2,5c-.37.83-.67,1.68-1,2.53s-.61,1.71-1,2.56c-.6,1.73-1.2,3.47-1.77,5.26Z"
       id="path213"
       style="fill:#494035;fill-opacity:1;stroke:none" />
  </g>
</svg>
