<?xml version="1.0" encoding="UTF-8" standalone="no"?>
<!-- Created with Inkscape (http://www.inkscape.org/) -->

<svg
   xmlns:dc="http://purl.org/dc/elements/1.1/"
   xmlns:cc="http://creativecommons.org/ns#"
   xmlns:rdf="http://www.w3.org/1999/02/22-rdf-syntax-ns#"
   xmlns:svg="http://www.w3.org/2000/svg"
   xmlns="http://www.w3.org/2000/svg"
   xmlns:sodipodi="http://sodipodi.sourceforge.net/DTD/sodipodi-0.dtd"
   xmlns:inkscape="http://www.inkscape.org/namespaces/inkscape"
   width="600"
   height="250"
   viewBox="0 0 158.75 66.145833"
   version="1.1"
   id="svg967"
   inkscape:version="0.92.4 (5da689c313, 2019-01-14)"
   sodipodi:docname="hero_image_bottlo_run.svg">
  <defs
     id="defs961" />
  <sodipodi:namedview
     id="base"
     pagecolor="#ffffff"
     bordercolor="#666666"
     borderopacity="1.0"
     inkscape:pageopacity="0.0"
     inkscape:pageshadow="2"
     inkscape:zoom="1.979899"
     inkscape:cx="318.8463"
     inkscape:cy="110.12911"
     inkscape:document-units="mm"
     inkscape:current-layer="layer1"
     showgrid="false"
     units="px"
     inkscape:window-width="1920"
     inkscape:window-height="1046"
     inkscape:window-x="-11"
     inkscape:window-y="-11"
     inkscape:window-maximized="1" />
  <metadata
     id="metadata964">
    <rdf:RDF>
      <cc:Work
         rdf:about="">
        <dc:format>image/svg+xml</dc:format>
        <dc:type
           rdf:resource="http://purl.org/dc/dcmitype/StillImage" />
        <dc:title></dc:title>
      </cc:Work>
    </rdf:RDF>
  </metadata>
  <g
     inkscape:label="Layer 1"
     inkscape:groupmode="layer"
     id="layer1"
     transform="translate(0,-230.85417)">
    <g
       transform="matrix(0.10712785,0,0,0.11043302,47.506571,231.70013)"
       id="bottle"
       style="fill:#494035;fill-opacity:1">
      <path
         inkscape:connector-curvature="0"
         d="m 287.47656,19.640625 c -12.8775,-0.04375 -25.53609,0.119141 -25.49609,1.119141 -8.86,5.79 -9.32086,16.260703 0.86914,20.220703 -7,2.32 -8.49969,16.248984 -1.92969,23.208984 4.2,4.44 1.55078,11.599609 1.55078,11.599609 -9.67,38.679998 -20.11139,142.720708 -20.11132,142.720708 0,0 1.16109,18.18087 -12.37891,37.13085 -13.54,18.95 -12.38086,44.85938 -12.38086,44.85938 0,0 0.499,65.34691 0.33594,126.5625 3.11868,0.41958 6.34516,0.81985 9.66601,1.20312 l -0.0723,-49.5664 0.12109,-78.12891 v -9.76953 -2.4707 -1.24024 l 0.10938,-1.23046 0.2207,-2.45899 c 0.1,-0.81 0.23937,-1.61945 0.35937,-2.43945 0.2,-1.63 0.63,-3.2318 1,-4.8418 0.37,-1.61 0.83039,-3.18852 1.40039,-4.72852 a 57.55,57.55 0 0 1 3.90039,-9.06054 l 1.21876,-2.15039 c 0.43999,-0.69 0.85031,-1.40008 1.32031,-2.08008 a 32.55,32.55 0 0 1 3,-4 57.29,57.29 0 0 0 6,-7.59961 43.16,43.16 0 0 0 4.34961,-8.57031 30,30 0 0 0 2,-9.29883 v -0.0606 L 262,118.34961 a 0.39,0.39 0 0 1 0.38867,-0.36133 0.39,0.39 0 0 1 0.041,0.002 0.41,0.41 0 0 1 0.37109,0.40039 l 0.0391,0.0293 c -0.21,9.23 -0.38046,18.46945 -0.73046,27.68946 -0.35001,9.21999 -0.66883,18.45015 -1.04883,27.66015 l -0.58985,13.83008 -0.70117,13.82031 c -0.49,9.21 -0.87922,18.43086 -1.44922,27.63086 V 230.25 c 0,0.57 -0.0706,1.00023 -0.14062,1.49023 -0.11,1 -0.26922,1.91961 -0.44922,2.84961 A 42.29,42.29 0 0 1 256.25,240 a 49.33,49.33 0 0 1 -4.7207,9.88086 65.49,65.49 0 0 1 -6.38868,8.58008 26.88,26.88 0 0 0 -2.30078,3.25976 c -0.38,0.59 -0.72961,1.23961 -1.09961,1.84961 l -1,1.91992 a 51,51 0 0 0 -3.30078,8.07032 c -0.49,1.37 -0.78992,2.79922 -1.16992,4.19922 -0.38,1.4 -0.61976,2.82929 -0.75976,4.27929 -0.09,0.72 -0.20907,1.43039 -0.28907,2.15039 l -0.14062,2.16993 -0.0801,1.08007 v 3.25977 l 0.13086,9.7207 c 0.25,13 0.26984,26.05008 0.33984,39.08008 l 0.16016,39.08984 -0.19141,39.08985 -0.0586,11.43164 c 16.46712,1.66807 35.25701,2.86587 56.69141,3.33789 26.47067,0.59291 49.7173,-0.52759 69.99023,-2.72266 -0.19167,-57.68724 -0.57931,-120.73338 -1.38281,-133.04687 -3.05,-42.58 -28.73,-42.99883 -29,-75.79883 -0.78,-55.7 -8.9,-134.211173 -14,-146.201172 a 10.52,10.52 0 0 1 1.25976,-10.150391 c 6.81,-11 5.12032,-21 -3.67968,-23.5 l 4.33984,-2.208985 c 0.77525,-0.375008 1.4312,-0.83388 1.99023,-1.351562 a 3.5,3.5 0 0 1 -2.02929,0.220703 4.35,4.35 0 0 1 -1.75977,-0.808594 8.07,8.07 0 0 1 -2.07031,-2.341797 13.06,13.06 0 0 1 -1.86133,-5.388671 c 1.32,1.36 2.49117,2.730156 3.70117,3.910156 a 9.22,9.22 0 0 0 1.79883,1.429687 2,2 0 0 0 0.70117,0.259766 0.6,0.6 0 0 0 0.39063,-0.08984 0.89,0.89 0 0 1 0.26953,-0.15039 0.85,0.85 0 0 1 0.19922,-0.220704 c 0.06,-0.09 0.10967,-0.198828 0.17969,-0.298828 0.07,-0.1 0.0904,-0.27039 0.15039,-0.40039 a 7.92,7.92 0 0 0 0.2207,-2.220703 c 0,-1.66 -0.29094,-3.440077 -0.46094,-5.330079 a 12.1,12.1 0 0 1 2.79102,5 7.49,7.49 0 0 1 0.20703,0.976563 c 0.31526,-5.684149 -4.16748,-12.31612 -9.73828,-12.255859 -0.83,0.175 -13.92524,-0.07539 -26.80274,-0.119141 z m -23.42578,5.148437 a 22,22 0 0 0 6.11914,1.861329 l 1.58008,0.269531 1.58984,0.199219 c 1.05,0.15 2.11969,0.200781 3.17969,0.300781 2.13,0.11 4.27016,0.250703 6.41016,0.220703 2.14,-0.03 4.27015,-0.05156 6.41015,-0.101563 4.29,-0.17 8.56938,-0.479843 12.85938,-0.839843 2.13,-0.22 4.29164,-0.350078 6.43164,-0.580078 2.14,-0.23 4.29875,-0.428594 6.46875,-0.558594 -2.09,0.57 -4.20031,1.049297 -6.32031,1.529297 -2.12,0.48 -4.25844,0.800156 -6.39844,1.160156 -2.14,0.36 -4.30094,0.550078 -6.46094,0.830078 -2.16,0.28 -4.33,0.328985 -6.5,0.458984 A 79.24,79.24 0 0 1 276.35938,29 a 41.42,41.42 0 0 1 -6.41993,-1.359375 17.7,17.7 0 0 1 -5.88867,-2.851563 z m -5.20117,2.660157 c 0.21,1.76 0.25969,3.43 0.42969,5 a 9.7,9.7 0 0 0 0.40039,2.089843 A 1.78,1.78 0 0 0 260,35.140625 c 0.1,0.09 0.0797,0.06984 0.17969,0.08984 0.1,0.02 0.14093,0 0.21093,0 a 0.71,0.71 0 0 1 0.20899,0 l 0.26953,-0.09961 a 3.78,3.78 0 0 1 0.33008,-0.220703 9,9 0 0 0 1.41016,-1.5 c 0.93,-1.24 1.80031,-2.649609 2.82031,-4.099609 a 11.26,11.26 0 0 1 -0.75,5.240234 A 7.75,7.75 0 0 1 263.09961,37 a 8.36,8.36 0 0 1 -0.66016,0.550781 c -0.27,0.16 -0.56937,0.309219 -0.85937,0.449219 a 6.45,6.45 0 0 1 -1,0.210938 5.27,5.27 0 0 1 -1,-0.08008 3.17,3.17 0 0 1 -1.88086,-1.210937 4.35,4.35 0 0 1 -0.70899,-1.679688 8,8 0 0 1 0,-2.890625 12.27,12.27 0 0 1 1.85938,-4.90039 z m 53.78125,1.169922 A 12.75,12.75 0 0 1 314.25,34 a 8.29,8.29 0 0 1 -0.2793,3 4.79,4.79 0 0 1 -0.89062,1.650391 3.64,3.64 0 0 1 -1.88086,1.128906 3.13,3.13 0 0 1 -2.35938,-0.388672 4.93,4.93 0 0 1 -1.33984,-1.310547 9.17,9.17 0 0 1 -1.2207,-2.740234 13.93,13.93 0 0 1 -0.38868,-5.519532 c 1,1.600001 1.73032,3.178907 2.57032,4.628907 a 11.72,11.72 0 0 0 1.28906,1.890625 2,2 0 0 0 0.58984,0.490234 c 0.15,0.07 0.0997,0.05 0.17969,0 A 0.6,0.6 0 0 0 310.88086,36.630859 2.13,2.13 0 0 0 311.30078,36 a 10.25,10.25 0 0 0 0.59961,-2.169922 c 0.29,-1.62 0.44047,-3.370937 0.73047,-5.210937 z m -46.21094,1.28125 c 0.45,1.85 0.74922,3.619765 1.19922,5.259765 a 9.29,9.29 0 0 0 0.81055,2.140625 1.89,1.89 0 0 0 0.48047,0.580078 0.47,0.47 0 0 0 0.3789,0.119141 1.63,1.63 0 0 1 0.31055,0 0.9,0.9 0 0 1 0.28125,-0.08008 3.07,3.07 0 0 1 0.30859,-0.169922 c 0.11,-0.07 0.21008,-0.189531 0.33008,-0.269531 a 8,8 0 0 0 1.32031,-1.791016 c 0.81,-1.46 1.50055,-3.110078 2.31055,-4.830078 a 12,12 0 0 1 -0.12109,5.701172 7.62,7.62 0 0 1 -1.41992,2.849609 5,5 0 0 1 -0.64844,0.650391 c -0.27,0.19 -0.5518,0.378828 -0.8418,0.548828 -0.29,0.17 -0.67,0.230078 -1,0.330078 a 8.94,8.94 0 0 1 -1,0 3.59,3.59 0 0 1 -2.08984,-0.869141 4.48,4.48 0 0 1 -1.09961,-1.589843 8.14,8.14 0 0 1 -0.58985,-3.070313 13,13 0 0 1 1.08008,-5.509765 z m 9.31055,1.320312 c 0.68,1.78 1.19961,3.498594 1.84961,5.058594 a 9.37,9.37 0 0 0 1.07031,2 1.83,1.83 0 0 0 0.54883,0.521484 0.52,0.52 0 0 0 0.39062,0.06836 h 0.30078 a 0.9,0.9 0 0 1 0.26954,-0.109375 3.06,3.06 0 0 1 0.28906,-0.208985 c 0.1,-0.08 0.19078,-0.210547 0.30078,-0.310547 a 8.17,8.17 0 0 0 1.08008,-1.939453 c 0.62,-1.54 1.10922,-3.270078 1.69922,-5.080078 a 12.22,12.22 0 0 1 0.58984,5.679688 7.86,7.86 0 0 1 -1.05859,3 5.45,5.45 0 0 1 -0.57032,0.71875 7.89,7.89 0 0 1 -0.75976,0.65039 9.27,9.27 0 0 1 -1,0.451172 9.26,9.26 0 0 1 -1,0.179688 3.52,3.52 0 0 1 -2.17969,-0.59961 4.52,4.52 0 0 1 -1.29101,-1.441406 8.38,8.38 0 0 1 -1,-3 13.34,13.34 0 0 1 0.4707,-5.638672 z m 10.26953,0 c 0.68,1.78 1.19961,3.498594 1.84961,5.058594 a 9,9 0 0 0 1.07031,2 1.94,1.94 0 0 0 0.54102,0.521484 0.56,0.56 0 0 0 0.39844,0.06836 h 0.30078 a 0.9,0.9 0 0 1 0.26953,-0.109375 2.16,2.16 0 0 1 0.29101,-0.208985 c 0.1,-0.08 0.18883,-0.210547 0.29883,-0.310547 a 8.17,8.17 0 0 0 1.08008,-1.939453 c 0.62,-1.54 1.11117,-3.270078 1.70117,-5.080078 a 12.09,12.09 0 0 1 0.58008,5.679688 7.67,7.67 0 0 1 -1.05078,3 5.45,5.45 0 0 1 -0.57031,0.71875 7.89,7.89 0 0 1 -0.75977,0.65039 9.27,9.27 0 0 1 -1,0.451172 9.26,9.26 0 0 1 -1,0.179688 3.52,3.52 0 0 1 -2.17969,-0.59961 4.52,4.52 0 0 1 -1.29101,-1.441406 8.38,8.38 0 0 1 -1,-3 A 13.34,13.34 0 0 1 286,31.220703 Z m 10.33984,0 c 0.68,1.78 1.19961,3.498594 1.84961,5.058594 a 9,9 0 0 0 1.07032,2 1.94,1.94 0 0 0 0.54101,0.521484 0.56,0.56 0 0 0 0.39844,0.06836 H 300.5 a 0.9,0.9 0 0 1 0.26953,-0.109375 2.16,2.16 0 0 1 0.29102,-0.208985 c 0.1,-0.08 0.17883,-0.210547 0.29883,-0.310547 a 8.17,8.17 0 0 0 1.08007,-1.939453 c 0.62,-1.54 1.11117,-3.270078 1.70117,-5.080078 a 12.09,12.09 0 0 1 0.58008,5.679688 7.67,7.67 0 0 1 -1.05078,3 6.43,6.43 0 0 1 -0.57031,0.71875 7.89,7.89 0 0 1 -0.75977,0.65039 9.27,9.27 0 0 1 -1,0.451172 9.26,9.26 0 0 1 -1,0.179688 3.52,3.52 0 0 1 -2.17968,-0.59961 4.52,4.52 0 0 1 -1.29102,-1.441406 8.38,8.38 0 0 1 -1,-3 13.34,13.34 0 0 1 0.4707,-5.638672 z m 14.73047,32.808594 c -0.75,0.63 -1.53008,1.211016 -2.33008,1.791015 a 18.1,18.1 0 0 1 -2.4707,1.619141 l -2.63867,1.361328 -0.66992,0.330078 -0.70117,0.259766 -1.41016,0.5 a 34.56,34.56 0 0 1 -5.79883,1.509766 c -1,0.18 -2,0.220078 -3,0.330078 -0.5,0 -1,0.08938 -1.5,0.109375 h -1.5 a 36.31,36.31 0 0 1 -11.76172,-2 30,30 0 0 1 -10.19922,-5.75 86.19,86.19 0 0 0 11,2.779297 61,61 0 0 0 11,1 h 1.3711 c 0.46,0 0.90914,-0.06008 1.36914,-0.08008 0.91,-0.06 1.83023,-0.05844 2.74023,-0.148437 0.91,-0.09 1.82024,-0.240078 2.74024,-0.330078 a 9,9 0 0 0 1.36914,-0.201172 l 1.35937,-0.259766 a 53.14,53.14 0 0 0 5.47071,-1.230468 23.8,23.8 0 0 0 2.74023,-0.789063 c 0.92,-0.28 1.85031,-0.560781 2.82031,-0.80078 z M 217.19922,500.63867 c -0.28189,11.91664 -0.64561,21.44205 -1.13867,26.50195 -1.29,28.56 17.60984,38.22938 29.83984,40.60938 h 86.17969 c 29.79,0 30.16992,-36.74023 30.16992,-36.74023 0,0 -0.008,-13.0144 -0.0234,-27.26172 -19.76533,2.64364 -41.88325,4.04992 -66.47265,3.53125 -22.87926,-0.4826 -43.32915,-2.02857 -61.54297,-4.26172 l -0.76172,31.91211 0.10156,0.60937 c 0.07,0.41 0.15977,0.85149 0.25977,1.27149 0.1,0.42 0.21937,0.85929 0.35937,1.27929 l 0.43946,1.25977 a 21.68,21.68 0 0 0 2.63085,4.64062 20.54,20.54 0 0 0 8.82032,6.32032 16.81,16.81 0 0 0 2.75976,0.90039 l 1.43946,0.35937 a 9.94,9.94 0 0 0 1.46093,0.29883 l 3,0.41016 c 1,0.13 2.17,0.17125 3.25,0.28125 4.4,0.36 8.82977,0.6289 13.25977,0.8789 4.43,0.25 8.88008,0.46039 13.33008,0.65039 l 13.34961,0.59961 26.74023,1.09961 a 0.41,0.41 0 0 1 0.38867,0.42188 0.4,0.4 0 0 1 -0.38867,0.3789 c -17.83,0.44 -35.65047,0.68952 -53.48047,0.51954 -4.46,-0.07 -8.92086,-0.1386 -13.38086,-0.3086 -1.12,-0.06 -2.22961,-9e-5 -3.34961,-0.16016 l -3.35937,-0.32031 a 11.64,11.64 0 0 1 -1.66992,-0.28125 l -1.6602,-0.33984 a 21.65,21.65 0 0 1 -3.25977,-0.92969 25.47,25.47 0 0 1 -11.24023,-7.43945 26.85,26.85 0 0 1 -3.61914,-5.7793 23.51,23.51 0 0 1 -1.87109,-6.58984 l -0.0488,-32.77735 c -3.60093,-0.48786 -7.09429,-1.00641 -10.51172,-1.54492 z"
         id="path9"
         style="fill:#494035;fill-opacity:1" />
    </g>
    <path
       style="fill:#494035;stroke-width:0.10876787"
       d="m 59.611574,280.63671 c -2.111062,0.63346 -3.681766,1.5168 -4.775159,2.30563 a 8.524163,8.7871553 0 0 1 -0.04493,-0.88574 c 0,0 -0.957042,-1.40293 -2.565854,-0.19581 -1.608817,1.20712 -4.254932,0.97966 -4.254932,0.97966 0.46306,1.42745 3.080427,1.70913 3.080427,1.70913 -2.091322,2.30291 -1.805971,3.75568 -1.805971,3.75568 1.596772,-1.7159 3.112949,-2.4248 4.276574,-2.71264 l 2.274412,2.80378 c 1.271553,-1.75062 4.571626,-2.65743 6.913659,-3.19963 -2.551556,-1.14267 -3.630984,-2.11482 -3.630984,-2.11482 0,0 -0.974139,-0.9439 0.187599,-1.99761 0.132898,-0.12054 0.246604,-0.27312 0.345155,-0.44763 z"
       id="path32"
       inkscape:connector-curvature="0" />
    <path
       style="fill:#494035;stroke-width:0.10876787"
       d="m 99.858365,280.56675 c 0.725195,0.86307 4.05e-4,1.67151 4.05e-4,1.67151 0,0 -1.091389,1.1265 -3.762436,2.51774 2.198188,0.59405 4.816796,1.51891 5.894566,3.04521 l 1.69883,-2.03291 c 1.18196,0.31273 2.8053,1.13082 4.42177,3.20537 -0.006,4.2e-4 0.40144,-1.41964 -1.48417,-3.9047 0,0 2.63167,-0.0417 3.21382,-1.42125 0,0 -2.66511,-0.0137 -4.15823,-1.36273 -1.49311,-1.34902 -2.56802,-0.0387 -2.56802,-0.0387 0,0 -0.005,0.0634 -0.0155,0.16593 -0.79985,-0.60164 -1.87264,-1.26587 -3.241129,-1.84549 z"
       id="path34"
       inkscape:connector-curvature="0" />
    <path
       inkscape:connector-curvature="0"
       id="path36"
       d="m 97.844186,275.6205 c -0.01167,-7.9e-4 -0.02373,-7.9e-4 -0.03639,7.8e-4 -0.09215,0.0101 -0.211804,0.0806 -0.364755,0.2646 -0.342499,0.41279 -5.621989,4.27713 -18.877213,3.98569 -11.779829,-0.25466 -15.731772,-2.62399 -16.46643,-3.14917 a 0.78532189,0.77087254 0 0 1 -0.202664,-0.20788 c -0.101329,-0.15019 -0.303893,-0.41775 -0.451836,-0.4814 -0.214824,-0.0905 -0.636378,0.0158 -0.649553,0.54493 -0.01316,0.52916 0.334449,3.59284 -0.72852,4.58055 -1.062972,0.98771 -0.110438,1.8044 -0.110438,1.8044 0,0 5.099032,4.06425 18.982509,4.3517 13.883479,0.28747 20.037188,-5.34443 20.037188,-5.34443 0,0 0.501767,-0.44468 -0.328141,-1.69697 -0.829908,-1.25229 -0.567618,-4.40337 -0.567618,-4.40337 0,0 -0.06142,-0.23791 -0.236105,-0.24945 z m -29.181602,4.25514 c 0.234109,5e-5 0.469539,0.0179 0.704376,0.0505 l 0.101333,0.0131 c 0.737694,0.0995 1.741932,0.47841 1.611213,1.38555 v 0.004 c -0.108422,0.69627 -0.709283,1.27301 -1.378072,1.41625 0.373914,0.21185 0.506682,0.52436 0.455001,0.8546 a 1.5888836,1.5596492 0 0 1 -0.261443,0.61157 c -0.415456,0.58983 -1.290077,0.86344 -1.979135,0.76795 l -0.05977,-0.005 a 1.8138403,1.7804669 0 0 1 -1.156212,-0.80856 0.14794451,0.14522244 0 0 1 -0.01308,-0.0857 c 0.0091,-0.0577 0.05051,-0.11922 0.09104,-0.11325 a 0.0324262,0.03182958 0 0 1 0.03049,0.0208 1.6932553,1.6621005 0 0 0 1.004215,0.54318 c 0.551245,0.0766 1.137922,-0.15324 1.563517,-0.80972 a 1.1815295,1.1597901 0 0 0 0.202665,-0.45053 c 0.06283,-0.43765 -0.487313,-0.46359 -0.687949,-0.67645 -0.202661,0.42672 -0.53822,1.15381 -0.584836,1.47608 a 0.08917204,0.08753133 0 0 1 -0.0851,0.0716 l -0.06471,-0.009 c -0.202661,-0.0278 -0.424586,-0.0926 -0.438774,-0.27955 a 0.54719205,0.53712409 0 0 1 0.0081,-0.11636 c 0.08917,-0.61869 0.972803,-2.3306 1.232214,-2.75731 0.03446,-0.0627 0.118556,-0.0764 0.202665,-0.0645 0.202661,0.0289 0.469108,0.19196 0.449855,0.32424 l -0.01324,0.0319 -0.559303,1.01546 0.08015,0.02 c 0.27461,0.0378 0.643378,-0.16323 0.932177,-0.45169 0.2209,-0.21286 0.431688,-0.52922 0.472221,-0.80972 0.04054,-0.2805 -0.08107,-0.5241 -0.506658,-0.62556 l -0.273715,-0.0548 c -1.013317,-0.14025 -2.491673,0.14223 -2.857482,1.18565 -0.01518,0.0488 -0.04259,0.0697 -0.08312,0.0637 l -0.0394,-0.0131 c -0.187461,-0.0766 -0.322327,-0.51621 -0.274703,-0.84645 a 0.42559379,0.41776319 0 0 1 0.159123,-0.30636 c 0.623952,-0.41179 1.314023,-0.57286 2.01635,-0.57272 z m 15.575816,0.88704 c 0.873033,-0.0241 1.534109,0.34387 1.607258,1.0992 a 2.1350623,2.0957786 0 0 1 -0.122708,0.84838 c -0.21077,0.62367 -0.676988,1.18273 -1.237356,1.29911 a 2.5819357,2.5344299 0 0 0 0.547233,0.95581 c 0.202661,0.2059 0.434822,0.32129 0.645593,0.29841 l 0.08609,-0.016 c 0.03648,0 0.06898,0.0338 0.07303,0.0736 a 0.08917204,0.08753133 0 0 1 -0.03661,0.0756 1.6932553,1.6621005 0 0 1 -0.5502,0.29841 l -0.07798,0.0101 c -0.69007,0.0647 -1.003169,-1.04153 -1.174418,-1.67812 -0.101333,0.58984 -0.240268,1.45613 -0.214934,1.71872 a 0.07802553,0.07658991 0 0 1 -0.06471,0.0867 l -0.07303,0.007 c -0.17429,0.0169 -0.365873,-1e-4 -0.419578,-0.17018 a 0.35364819,0.34714132 0 0 1 -0.01502,-0.0865 c -0.02433,-0.24767 0.04033,-0.78488 0.134582,-1.40555 0.166185,-1.07824 0.440864,-2.40006 0.529021,-2.70641 0.01518,-0.0657 0.08505,-0.0995 0.180303,-0.1055 0.17429,-0.0159 0.423594,0.0646 0.437782,0.20885 v 0.0488 c -0.05269,0.2059 -0.240158,1.06834 -0.405326,1.97847 a 0.37492788,0.36802947 0 0 0 0.139923,0.0109 c 0.479299,-0.0448 0.93018,-0.83545 1.040631,-1.58643 a 1.3659536,1.3408209 0 0 0 0.01109,-0.3392 c -0.03041,-0.31132 -0.202625,-0.5611 -0.643415,-0.58398 a 2.3306327,2.2877509 0 0 0 -0.336454,0.007 2.7471068,2.6965619 0 0 0 -1.329388,0.49733 c -0.439782,0.30736 -0.748756,0.73905 -0.797395,1.22645 0,0.0488 -0.02129,0.0747 -0.06591,0.0787 a 0.09119867,0.08952068 0 0 1 -0.05878,-0.0111 c -0.08411,-0.0319 -0.190567,-0.14319 -0.292912,-0.36698 a 1.2798213,1.2562735 0 0 1 -0.101332,-0.36912 0.43066042,0.42273654 0 0 1 0.07205,-0.31219 c 0.607991,-0.69628 1.399338,-0.9948 2.248499,-1.07239 l 0.08708,-0.008 c 0.05998,-0.005 0.119128,-0.008 0.177331,-0.01 z m -8.052319,0.19797 a 0.21482354,0.21087094 0 0 1 0.01466,7.9e-4 c 0.195568,0.009 0.436762,0.18714 0.429669,0.3254 l -0.0081,0.0288 c -0.106394,0.31033 -1.02648,2.97407 -1.1572,3.97869 l -0.01721,0.19894 c 0,0.0587 1.02e-4,0.0995 0.0113,0.0995 h 0.01405 c 0.101332,0.005 0.253333,-0.24476 0.303997,-0.32036 0.253329,-0.41179 0.544151,-1.11687 0.70932,-1.5227 0.01721,-0.0477 0.04066,-0.0567 0.07105,-0.0558 a 0.06586571,0.06465383 0 0 1 0.0364,0.0119 0.11045174,0.1084195 0 0 1 0.0012,7.9e-4 c 0.218196,-0.27452 0.497358,-0.45984 0.803525,-0.44547 a 0.81774808,0.8027021 0 0 1 0.181494,0.0297 c 0.345539,0.0995 0.431631,0.42884 0.415419,0.76504 a 2.207008,2.1664005 0 0 1 -0.122707,0.58884 0.70932301,0.69627197 0 0 0 0.643614,-0.32832 0.06079912,0.05968046 0 0 1 0.05977,-0.0329 0.092212,0.09051536 0 0 1 0.04354,0.016 0.04863929,0.04774436 0 0 1 0.02631,0.0517 0.08511876,0.08355263 0 0 1 -0.0091,0.0427 0.85524093,0.83950508 0 0 1 -0.764146,0.39788 h -0.05878 c -0.181384,0.44362 -0.566324,0.99473 -1.068929,0.97583 -0.453411,-0.0226 -0.62628,-0.38807 -0.608983,-0.84178 -0.08389,0.1668 -0.170208,0.32533 -0.256495,0.45887 -0.09019,0.15417 -0.268428,0.39792 -0.426502,0.40389 l -0.101333,-0.005 c -0.181388,-0.008 -0.353738,-0.0458 -0.41859,-0.25565 a 1.3922998,1.3666823 0 0 1 -0.03247,-0.42371 c 0.01178,-0.2482 0.06122,-0.55375 0.131222,-0.88297 -0.17776,0.33849 -0.428518,0.81301 -0.675284,1.09977 -0.0841,0.0995 -0.227934,0.25771 -0.365743,0.25373 h -0.124687 c -0.164159,0.008 -0.32434,-0.033 -0.385142,-0.17815 a 0.68196344,0.66941574 0 0 1 -0.0475,-0.32328 1.9121322,1.8769502 0 0 1 0.0394,-0.33608 4.2417517,4.1637063 0 0 1 -0.374849,0.55503 c -0.0841,0.0995 -0.235037,0.2575 -0.373858,0.25352 h -0.123699 c -0.168209,-0.005 -0.327307,-0.0458 -0.388105,-0.19097 a 0.82686795,0.81165418 0 0 1 -0.04157,-0.32326 c 0.0078,-0.23491 0.07373,-0.53977 0.167435,-0.86568 a 0.84916099,0.83353698 0 0 1 -0.370096,0.0938 h -0.05779 c -0.14896,0.45457 -0.491317,1.03653 -0.993926,1.04946 -0.460044,0.0139 -0.658765,-0.34613 -0.670924,-0.80467 -0.02029,-0.73706 0.458112,-1.71678 1.136024,-1.73369 a 0.78329524,0.76888321 0 0 1 0.183266,0.0169 c 0.352638,0.0766 0.463104,0.39779 0.472222,0.73298 a 2.1806616,2.140539 0 0 1 -0.07995,0.59681 0.70932301,0.69627197 0 0 0 0.444114,-0.1626 c 0.118986,-0.37718 0.267828,-0.77 0.409091,-1.11163 -0.168212,-0.0129 -0.303997,-0.0168 -0.405326,-0.0198 a 0.06890567,0.06763785 0 0 1 -0.07105,-0.0736 0.08005217,0.07857926 0 0 1 0.076,-0.0695 l 0.452039,0.0208 c 0.101328,-0.24071 0.196668,-0.44561 0.266589,-0.5968 0.02434,-0.0636 0.101142,-0.0826 0.185247,-0.0806 0.18949,0.006 0.447949,0.12939 0.444907,0.22886 l -0.211766,0.47344 0.575534,0.0248 c 0.101333,-0.24767 0.202726,-0.45948 0.267578,-0.60769 0.02433,-0.0636 0.10134,-0.0826 0.185444,-0.0806 0.196588,0.006 0.456068,0.1284 0.453027,0.22886 l -0.0081,0.0217 c -0.07803,0.15517 -0.149118,0.31032 -0.212958,0.47344 0.138826,0 0.262577,0.008 0.357828,0.0181 a 0.06789234,0.06664317 0 0 1 0.06986,0.0736 0.0709323,0.0696272 0 0 1 -0.07401,0.0625 c -0.117545,0 -0.255317,-0.008 -0.415421,-0.0198 a 16.07934,15.783491 0 0 0 -0.683993,1.98935 2.4816172,2.4359571 0 0 0 -0.101328,0.46936 c 0,0.0358 -8.1e-5,0.0576 0.0202,0.0587 0.08714,0 0.238206,-0.16502 0.28381,-0.22769 0.236101,-0.2984 0.515696,-0.81566 0.678843,-1.126 a 0.06789234,0.06664317 0 0 1 0.06689,-0.0408 0.07194562,0.07062187 0 0 1 0.05443,0.0268 c 0.279109,-1.22941 0.821818,-2.7316 0.926633,-3.00093 a 0.21482354,0.21087094 0 0 1 0.194944,-0.10937 z m 13.873167,0.83149 a 0.30399559,0.29840227 0 0 1 0.296672,0.20903 l 0.0202,0.0835 c 0.05979,0.49734 0.03235,1.51986 0.164072,1.91475 0.02737,0.0816 0.04867,0.12032 0.08312,0.10938 0.168212,-0.0696 0.217881,-0.33419 0.34556,-1.55963 a 0.06991898,0.06863252 0 0 1 0.04255,-0.0587 0.07498558,0.07360589 0 0 1 0.101332,0.0437 0.05167925,0.05072839 0 0 1 0,0.0299 c -0.123626,1.23838 -0.178202,1.57946 -0.4366,1.67793 l -0.19257,0.0695 c -0.246236,0.0775 -0.437897,0.0797 -0.551387,-0.26052 -0.153009,-0.49733 -0.133713,-1.72879 -0.153973,-1.81333 -0.0061,-0.0199 -0.01826,-0.0318 -0.03247,-0.0268 -0.01417,0.005 -0.04145,0.0359 -0.05462,0.0628 -0.235089,0.39787 -0.451941,1.31379 -0.506658,1.56545 a 4.507241,4.4243108 0 0 0 0.08411,0.78 c 0.02024,0.0607 -0.01218,0.0786 -0.0669,0.0995 l -0.03543,0.0109 c -0.166185,0.0537 -0.399196,0.0914 -0.45797,-0.0628 -0.05126,-0.15271 -0.08696,-0.52543 -0.109447,-0.93484 a 8.8310715,8.668586 0 0 1 -0.238291,0.88821 c -0.101333,0.25961 -0.218723,0.45655 -0.352483,0.49733 l -0.08728,0.0189 c -0.177331,0.0418 -0.366849,0.0646 -0.480336,-0.0637 a 0.59583136,0.58486843 0 0 1 -0.126667,-0.27256 1.977998,1.9416041 0 0 1 -0.04453,-0.27645 2.1046627,2.0659385 0 0 1 -0.09519,0.31724 c -0.0912,0.27155 -0.219869,0.51531 -0.380988,0.56106 l -0.09223,0.0208 c -0.177331,0.0418 -0.366821,0.0648 -0.481325,-0.0636 a 0.59076474,0.57989508 0 0 1 -0.125679,-0.27158 2.6234819,2.5752117 0 0 1 -0.05679,-0.53911 9.1198672,8.9520681 0 0 1 0.126662,-1.50988 0.18847726,0.18500941 0 0 1 0.157143,-0.12531 c 0.170241,-0.0408 0.415419,0.012 0.440754,0.11636 v 0.0297 c -0.03749,0.24469 -0.202661,1.55069 -0.101333,2.05599 0.02332,0.0995 0.04568,0.15832 0.08115,0.15036 0.07802,-0.0189 0.18949,-0.14734 0.303993,-0.48354 a 6.3464145,6.2296445 0 0 0 0.238094,-1.20546 7.8755126,7.7306081 0 0 1 0.101328,-0.82565 c 0.0081,-0.0606 0.07182,-0.10542 0.156945,-0.12532 0.04256,-0.01 0.08989,-0.0146 0.137157,-0.0142 0.141785,0.002 0.284269,0.048 0.304789,0.13152 v 0.0299 c -0.03851,0.2437 -0.207733,1.55072 -0.101335,2.05502 0.02433,0.0995 0.0465,0.15915 0.08906,0.1492 0.09019,-0.0289 0.182461,-0.20492 0.267581,-0.43866 a 8.8442447,8.6815168 0 0 0 0.28579,-1.10619 0.06687903,0.0656485 0 0 1 0.05364,-0.0566 0.08613208,0.08454731 0 0 1 0.0043,-7.9e-4 c -0.01434,-0.41073 -0.01632,-0.80988 -0.0053,-1.02575 0,-0.0606 0.06277,-0.1105 0.145859,-0.13736 0.166184,-0.0537 0.426639,-0.0329 0.46312,0.0765 v 0.0289 c -0.01215,0.14722 -0.01518,0.89515 -0.01822,0.95582 0.05472,-0.18301 0.115479,-0.39092 0.187424,-0.58786 0.11957,-0.33223 0.293989,-0.77274 0.585823,-0.86723 a 0.30399559,0.29840227 0 0 1 0.117759,-0.026 z m -16.564995,1.08326 a 16.92242,16.61106 0 0 0 -0.692103,2.00625 3.3186184,3.2575581 0 0 0 -0.0952,0.47053 c 0,0.0358 0.005,0.0567 0.01919,0.0577 0.07601,0.002 0.226987,-0.16522 0.278664,-0.22789 a 7.3475732,7.212383 0 0 0 0.593743,-0.97777 12.928931,12.69105 0 0 1 0.464108,-1.30492 c -0.18949,-0.013 -0.378919,-0.0179 -0.568408,-0.0239 z m -2.020499,0.32929 c -0.348584,0.0657 -0.709437,1.04943 -0.696261,1.56467 0,0.17904 0.05164,0.30728 0.16209,0.31822 h 0.02138 c 0.284746,-0.006 0.551238,-0.70813 0.625211,-0.93193 a 0.41850056,0.41080046 0 0 1 -0.169216,-0.3322 c -0.005,-0.20789 0.120468,-0.41889 0.258276,-0.45868 -0.02433,-0.0925 -0.06981,-0.16306 -0.165058,-0.16008 z m 5.983524,0.49831 c -0.352634,0.0408 -0.785322,0.99459 -0.810652,1.51182 -0.0091,0.17805 0.02834,0.30943 0.136757,0.32833 h 0.02235 c 0.284745,0.0169 0.602909,-0.66436 0.693095,-0.8822 v -0.004 a 0.41647395,0.40881112 0 0 1 -0.143883,-0.34406 c 0.01013,-0.20689 0.15107,-0.40885 0.291924,-0.43769 -0.01826,-0.0945 -0.05794,-0.16815 -0.153187,-0.17213 z"
       style="fill:#494035;stroke-width:0.10039531" />
    <g
       transform="matrix(0.10712785,0,0,0.11043302,47.506571,231.70013)"
       id="wheat"
       style="fill:#494035;fill-opacity:1;stroke:none">
      <path
         inkscape:connector-curvature="0"
         class="cls-4"
         d="m 82,335.14 c 0,0 -14,27.11 -2.47,46.94 11.53,19.83 32.83,28.92 32.83,28.92 0,0 8.82,7.12 -18.62,-42.42 0,0 -8.6,-15.21 -8.87,-25.19 C 84.6,333.41 84.59,329.1 82,335.14 Z"
         id="path57"
         style="fill:#494035;fill-opacity:1;stroke:none" />
      <path
         inkscape:connector-curvature="0"
         class="cls-4"
         d="m 66.67,306.73 c 0,0 -16.81,17 -13.24,37 3.57,20 16.88,34.59 16.88,34.59 0,0 4.7,8.77 -3.24,-40.61 0,0 -2.56,-15.22 -0.32,-23.36 2.24,-8.14 3.25,-11.61 -0.08,-7.62 z"
         id="path59"
         style="fill:#494035;fill-opacity:1;stroke:none" />
      <path
         inkscape:connector-curvature="0"
         class="cls-4"
         d="m 58.87,267 c 0,0 -20.87,10.66 -20.77,38.69 0.1,28.03 9,37.86 9,37.86 0,0 1.8,0.8 0.75,-19.05 0,0 0.77,-11.59 6.5,-16.81 5.73,-5.22 2.24,-29.37 2.24,-29.37 0,0 0.49,-6.12 3,-8.68 1.52,-1.52 0.74,-3.49 -0.72,-2.64 z"
         id="path61"
         style="fill:#494035;fill-opacity:1;stroke:none" />
      <path
         inkscape:connector-curvature="0"
         class="cls-4"
         d="m 33.5,292.32 c -1.84,-4.32 -6.69,-19.3 0.42,-44.78 0,0 5.39,-17.1 24.38,-21.13 0,0 2.74,1.06 -0.11,5 -2.85,3.94 -7.12,14.69 -9.19,28.74 0,0 0.23,5.24 -7.52,11.87 0,0 -5.44,2.57 -7.21,20 -0.06,0.54 -0.57,0.78 -0.77,0.3 z"
         id="path63"
         style="fill:#494035;fill-opacity:1;stroke:none" />
      <path
         inkscape:connector-curvature="0"
         class="cls-4"
         d="m 31.73,240.45 c 0,0 -4.59,-25.57 11,-49.66 8.08,-10.27 13.49,-9.73 27.27,-5.44 0,0 2.45,1.24 -2.62,4 a 9.39,9.39 0 0 0 -3.07,2.59 58.1,58.1 0 0 0 -8.31,16.26 19.28,19.28 0 0 1 -3.36,6.28 c -2.37,2.79 -6.38,6.86 -11.21,9.17 0,0 -5.24,2.9 -8.31,14 -0.05,0.05 -0.85,8.26 -1.39,2.8 z"
         id="path65"
         style="fill:#494035;fill-opacity:1;stroke:none" />
      <path
         inkscape:connector-curvature="0"
         class="cls-4"
         d="m 37.59,186.39 c 0,0 -1.16,-19.21 18.16,-37.06 0,0 12,-12.43 28.09,4 0,0 1.75,3.49 -3.79,5 0,0 -10.21,4.2 -16.21,13.45 0,0 -3.77,3.45 -11,2.77 a 18.93,18.93 0 0 0 -14,11 c 0,0 -0.84,4.23 -1.25,0.84 z"
         id="path67"
         style="fill:#494035;fill-opacity:1;stroke:none" />
      <path
         inkscape:connector-curvature="0"
         class="cls-4"
         d="m 54.46,118 c 0,0 9.67,-23 31.85,-33.14 0,0 3.33,-1.74 1.21,2.69 0,0 -14.18,25.66 -16.28,37 0,0 -2.79,10.13 -3.58,10.32 -0.79,0.19 -7.36,1.4 -10.37,5.23 0,0 -4.42,4.9 -5.46,1.54 -1.04,-3.36 -1.06,-14.89 2.63,-23.64 z"
         id="path69"
         style="fill:#494035;fill-opacity:1;stroke:none" />
      <path
         inkscape:connector-curvature="0"
         class="cls-4"
         d="m 36.46,170.13 c 0,0 3.31,-13.74 10.25,-20.61 0,0 2.63,-1 0.14,-18.78 -2.49,-17.78 -1.27,-32.74 -4.1,-28.94 -2.83,3.8 -12.67,33.68 -12.52,51.93 0,0 3.94,23.51 6.23,16.4 z"
         id="path71"
         style="fill:#494035;fill-opacity:1;stroke:none" />
      <path
         inkscape:connector-curvature="0"
         class="cls-4"
         d="m 18.44,212.42 a 93,93 0 0 1 0.45,-41.16 c 5.42,-22 5.16,-13.45 5.16,-13.45 0,0 4.2,31.51 9.48,39.45 0,0 -6.74,16.16 -6.5,30.51 a 36.87,36.87 0 0 1 -8.59,-15.35 z"
         id="path73"
         style="fill:#494035;fill-opacity:1;stroke:none" />
      <path
         inkscape:connector-curvature="0"
         class="cls-4"
         d="m 26.46,284.26 c 0,0 -1.63,-17.17 1.62,-32 0,0 -10.91,-15.05 -14.28,-27.89 -3.37,-12.84 -3.7,-0.71 -3.7,-0.71 0,0 -5.23,47.86 16.36,60.6 z"
         id="path75"
         style="fill:#494035;fill-opacity:1;stroke:none" />
      <path
         inkscape:connector-curvature="0"
         class="cls-4"
         d="m 38.07,334.21 c 0,0 -5.27,-9.14 -3.67,-27.65 0,0 -9.41,-15.21 -19.2,-19.8 0,0 -11.75,-9.49 -4.86,4.63 0,0 8.58,38.08 27.73,42.82 z"
         id="path77"
         style="fill:#494035;fill-opacity:1;stroke:none" />
      <path
         inkscape:connector-curvature="0"
         class="cls-4"
         d="m 24.19,349 c 0,0 -7.86,-8.59 0.67,-6 8.53,2.59 23.14,2.9 27.24,15.28 4.1,12.38 7.22,19.46 11.15,21.12 0,0 -14.9,3 -23.66,-5.46 C 30.83,365.48 28.93,352.62 24.19,349 Z"
         id="path79"
         style="fill:#494035;fill-opacity:1;stroke:none" />
      <path
         inkscape:connector-curvature="0"
         class="cls-4"
         d="m 44.63,390.49 c 0,0 23.31,-9.06 36.94,4.18 a 57.67,57.67 0 0 0 23.55,21.24 c 0,0 6.09,3.88 -6.92,3.63 A 51.73,51.73 0 0 1 57.83,403 c 0,0 -6,-6.12 -10.5,-7.44 -4.5,-1.32 -5.76,-2.27 -2.7,-5.07 z"
         id="path81"
         style="fill:#494035;fill-opacity:1;stroke:none" />
      <path
         inkscape:connector-curvature="0"
         class="cls-4"
         d="m 50,89 a 53.53,53.53 0 0 1 4.4,-13 c 0.95,-2.1 2.08,-4.1 3.2,-6.11 1.12,-2.01 2.43,-3.91 3.74,-5.8 A 84.43,84.43 0 0 1 70.19,53.52 134.86,134.86 0 0 1 80.47,44.3 c 3.57,-2.88 7.33,-5.49 11.15,-8 3.82,-2.51 7.8,-4.74 11.89,-6.77 a 166.2,166.2 0 0 1 25.3,-10.15 l 0.1,0.28 a 165.4,165.4 0 0 0 -24.69,11.2 c -4,2.13 -7.78,4.58 -11.53,7.07 A 133.37,133.37 0 0 0 82,46.15 129,129 0 0 0 63.78,65.81 110.39,110.39 0 0 0 56.28,76.93 c -1.13,1.94 -2.22,3.9 -3.22,5.92 A 62.12,62.12 0 0 0 50.31,89 Z"
         id="path83"
         style="fill:#494035;fill-opacity:1;stroke:none" />
      <path
         inkscape:connector-curvature="0"
         class="cls-4"
         d="m 72.64,81.58 a 44.12,44.12 0 0 1 4.7,-11.53 65.53,65.53 0 0 1 7.17,-10.26 69.8,69.8 0 0 1 9,-8.74 107.21,107.21 0 0 1 10.19,-7.21 111.09,111.09 0 0 1 10.91,-6 c 1.89,-0.85 3.75,-1.75 5.68,-2.5 l 2.88,-1.17 2.83,-1.03 A 149,149 0 0 1 150,27 l 0.06,0.3 a 146.17,146.17 0 0 0 -23.44,7.24 l -2.84,1.15 -2.84,1.31 c -1.87,0.81 -3.67,1.77 -5.5,2.67 A 108.14,108.14 0 0 0 105,45.85 106.5,106.5 0 0 0 86.76,61.78 a 89.81,89.81 0 0 0 -7.64,9.4 c -1.17,1.65 -2.28,3.34 -3.32,5.09 a 50.7,50.7 0 0 0 -2.88,5.4 z"
         id="path85"
         style="fill:#494035;fill-opacity:1;stroke:none" />
      <path
         inkscape:connector-curvature="0"
         class="cls-4"
         d="m 93.08,78.48 a 48.17,48.17 0 0 1 6.34,-10.16 67.81,67.81 0 0 1 8.35,-8.68 71.82,71.82 0 0 1 20.67,-12.2 83.38,83.38 0 0 1 11.42,-3.66 c 1,-0.27 1.94,-0.47 2.91,-0.67 0.97,-0.2 2,-0.42 2.94,-0.59 2,-0.28 3.93,-0.67 5.91,-0.84 a 110.35,110.35 0 0 1 23.76,0.15 v 0.3 a 108.8,108.8 0 0 0 -23.53,1 c -1.95,0.24 -3.86,0.69 -5.78,1 -1,0.2 -1.9,0.46 -2.85,0.68 -0.95,0.22 -1.9,0.46 -2.83,0.76 a 81.91,81.91 0 0 0 -11,4 73.21,73.21 0 0 0 -10.23,5.55 110.25,110.25 0 0 0 -9.47,6.88 89.67,89.67 0 0 0 -16.35,16.62 z"
         id="path87"
         style="fill:#494035;fill-opacity:1;stroke:none" />
      <path
         inkscape:connector-curvature="0"
         class="cls-4"
         d="m 85.43,109.23 a 51.66,51.66 0 0 1 3.91,-9.34 74.65,74.65 0 0 1 5.34,-8.64 71.17,71.17 0 0 1 14.21,-14.48 69.37,69.37 0 0 1 17.5,-10.16 c 0.79,-0.33 1.58,-0.62 2.38,-0.87 l 2.4,-0.8 c 1.64,-0.42 3.24,-0.93 4.9,-1.23 a 63.34,63.34 0 0 1 10,-1.33 v 0.3 A 64.62,64.62 0 0 0 127,68 a 67.62,67.62 0 0 0 -16.56,10.63 70.45,70.45 0 0 0 -7,6.93 c -2.21,2.43 -4.29,5 -6.35,7.52 A 153.43,153.43 0 0 0 85.7,109.34 Z"
         id="path89"
         style="fill:#494035;fill-opacity:1;stroke:none" />
      <path
         inkscape:connector-curvature="0"
         class="cls-4"
         d="m 82.15,138.71 a 37.66,37.66 0 0 1 3.28,-8.25 c 0.69,-1.31 1.42,-2.6 2.23,-3.85 l 1.21,-1.87 1.31,-1.8 a 72.6,72.6 0 0 1 12.48,-12.6 c 1.15,-0.91 2.34,-1.79 3.51,-2.69 0.59,-0.44 1.16,-0.91 1.76,-1.33 l 1.84,-1.23 c 1.23,-0.81 2.43,-1.65 3.68,-2.43 l 3.82,-2.21 1.91,-1.09 2,-1 4,-1.93 c 2.66,-1.21 5.41,-2.23 8.11,-3.34 l 0.11,0.28 -3.91,1.93 c -1.3,0.66 -2.64,1.23 -3.9,2 l -3.78,2.16 -1.89,1.08 -1.81,1.2 -3.64,2.36 c -1.19,0.83 -2.33,1.72 -3.49,2.58 l -1.81,1.32 c -0.57,0.44 -1.11,0.93 -1.66,1.39 -1.1,0.94 -2.21,1.85 -3.29,2.8 a 137.89,137.89 0 0 0 -11.68,12.63 108.15,108.15 0 0 0 -10.11,14 z"
         id="path91"
         style="fill:#494035;fill-opacity:1;stroke:none" />
      <path
         inkscape:connector-curvature="0"
         class="cls-4"
         d="m 524,345.62 c 0,0 14,28.66 2.48,49.62 -11.52,20.96 -32.83,30.55 -32.83,30.55 0,0 -8.82,7.52 18.62,-44.85 0,0 8.61,-16.07 8.87,-26.63 0.26,-10.56 0.31,-15.08 2.86,-8.69 z"
         id="path93"
         style="fill:#494035;fill-opacity:1;stroke:none" />
      <path
         inkscape:connector-curvature="0"
         class="cls-4"
         d="m 537.58,311.7 c 0,0 16.46,17.64 13,38.29 -3.46,20.65 -16.58,35.81 -16.58,35.81 0,0 -4.6,9.08 3.17,-42 0,0 2.52,-15.76 0.32,-24.18 -2.2,-8.42 -3.19,-12.05 0.09,-7.92 z"
         id="path95"
         style="fill:#494035;fill-opacity:1;stroke:none" />
      <path
         inkscape:connector-curvature="0"
         class="cls-4"
         d="m 545.22,270.59 c 0,0 20.48,11 20.34,40 -0.14,29 -8.82,39.19 -8.82,39.19 0,0 -1.76,0.82 -0.73,-19.72 0,0 -0.75,-12 -6.36,-17.4 -5.61,-5.4 -2.19,-30.41 -2.19,-30.41 0,0 -0.49,-6.33 -3,-9 -1.46,-1.51 -0.67,-3.55 0.76,-2.66 z"
         id="path97"
         style="fill:#494035;fill-opacity:1;stroke:none" />
      <path
         inkscape:connector-curvature="0"
         class="cls-4"
         d="m 570.06,296.79 c 1.8,-4.47 6.55,-20 -0.41,-46.36 0,0 -5.28,-17.7 -23.87,-21.87 0,0 -2.68,1.09 0.1,5.2 2.78,4.11 7,15.18 9,29.72 0,0 -0.23,5.42 7.36,12.29 0,0 5.33,2.66 7.06,20.7 0.06,0.53 0.57,0.81 0.76,0.32 z"
         id="path99"
         style="fill:#494035;fill-opacity:1;stroke:none" />
      <path
         inkscape:connector-curvature="0"
         class="cls-4"
         d="m 571.79,243.1 c 0,0 4.5,-26.47 -10.78,-51.41 -7.91,-10.64 -13.2,-10.07 -26.7,-5.63 0,0 -2.4,1.27 2.56,4.12 a 9.16,9.16 0 0 1 3,2.68 61.06,61.06 0 0 1 8.2,16.85 20.3,20.3 0 0 0 3.29,6.5 c 2.32,2.89 6.25,7.1 11,9.49 0,0 5.13,3 8.14,14.55 -0.01,0 0.77,8.5 1.29,2.85 z"
         id="path101"
         style="fill:#494035;fill-opacity:1;stroke:none" />
      <path
         inkscape:connector-curvature="0"
         class="cls-4"
         d="m 566.06,187.13 c 0,0 1.13,-19.89 -17.79,-38.37 0,0 -11.8,-12.86 -27.5,4.19 0,0 -1.72,3.61 3.71,5.2 0,0 10,4.35 15.87,13.92 0,0 3.69,3.57 10.72,2.86 0,0 9.25,1.12 13.7,11.37 0,0 0.92,4.34 1.29,0.83 z"
         id="path103"
         style="fill:#494035;fill-opacity:1;stroke:none" />
      <path
         inkscape:connector-curvature="0"
         class="cls-4"
         d="m 549.54,116.29 c 0,0 -9.47,-23.86 -31.2,-34.29 0,0 -3.25,-1.8 -1.17,2.79 0,0 13.88,26.57 15.93,38.29 0,0 2.73,10.49 3.51,10.68 0.78,0.19 7.21,1.46 10.15,5.42 0,0 4.34,5.07 5.35,1.6 1.01,-3.47 1.04,-15.39 -2.57,-24.49 z"
         id="path105"
         style="fill:#494035;fill-opacity:1;stroke:none" />
      <path
         inkscape:connector-curvature="0"
         class="cls-4"
         d="m 567.17,170.3 c 0,0 -3.25,-14.22 -10,-21.33 0,0 -2.58,-1 -0.15,-19.45 2.43,-18.45 1.25,-33.91 4,-30 2.75,3.91 12.41,34.87 12.27,53.76 -0.02,0.04 -3.88,24.38 -6.12,17.02 z"
         id="path107"
         style="fill:#494035;fill-opacity:1;stroke:none" />
      <path
         inkscape:connector-curvature="0"
         class="cls-4"
         d="m 584.81,214.07 a 101.4,101.4 0 0 0 -0.45,-42.6 c -5.3,-22.76 -5.05,-13.93 -5.05,-13.93 0,0 -4.11,32.63 -9.28,40.84 0,0 6.6,16.74 6.37,31.59 a 38.65,38.65 0 0 0 8.41,-15.9 z"
         id="path109"
         style="fill:#494035;fill-opacity:1;stroke:none" />
      <path
         inkscape:connector-curvature="0"
         class="cls-4"
         d="m 577,288.44 c 0,0 1.59,-17.78 -1.6,-33.18 0,0 10.69,-15.57 14,-28.87 3.31,-13.3 3.62,-0.73 3.62,-0.73 0,0 5.08,49.6 -16.02,62.78 z"
         id="path111"
         style="fill:#494035;fill-opacity:1;stroke:none" />
      <path
         inkscape:connector-curvature="0"
         class="cls-4"
         d="m 565.59,340.15 c 0,0 5.16,-9.47 3.59,-28.62 0,0 9.22,-15.75 18.8,-20.5 0,0 11.51,-9.82 4.76,4.8 0,0 -8.4,39.41 -27.15,44.32 z"
         id="path113"
         style="fill:#494035;fill-opacity:1;stroke:none" />
      <path
         inkscape:connector-curvature="0"
         class="cls-4"
         d="m 579.18,355.46 c 0,0 7.69,-8.89 -0.66,-6.26 -8.35,2.63 -22.64,3.05 -26.67,15.87 -4.03,12.82 -7.07,20.14 -10.92,21.86 0,0 14.59,3.11 23.17,-5.65 8.58,-8.76 10.44,-22.07 15.08,-25.82 z"
         id="path115"
         style="fill:#494035;fill-opacity:1;stroke:none" />
      <path
         inkscape:connector-curvature="0"
         class="cls-4"
         d="m 558.41,405.13 c 0,0 -23.32,-9.58 -36.95,4.41 A 59.2,59.2 0 0 1 497.91,432 c 0,0 -6.09,4.1 6.93,3.84 0,0 22.58,2.56 40.37,-17.53 0,0 6,-6.47 10.5,-7.86 4.5,-1.39 5.76,-2.37 2.7,-5.32 z"
         id="path117"
         style="fill:#494035;fill-opacity:1;stroke:none" />
      <path
         inkscape:connector-curvature="0"
         class="cls-4"
         d="m 552.88,87.61 a 63.53,63.53 0 0 0 -2.72,-6.49 c -1,-2.13 -2.07,-4.2 -3.19,-6.24 A 120.46,120.46 0 0 0 539.52,63.06 136.63,136.63 0 0 0 521.24,42 132.34,132.34 0 0 0 498.61,25.44 162.61,162.61 0 0 0 473.19,13.26 l 0.1,-0.28 a 163.87,163.87 0 0 1 26.06,11.15 138.22,138.22 0 0 1 12.15,7.41 141.47,141.47 0 0 1 11.33,8.67 c 7.17,6.24 14,13.12 19.17,21.17 a 86.49,86.49 0 0 1 6.86,12.57 57.72,57.72 0 0 1 4.31,13.6 z"
         id="path119"
         style="fill:#494035;fill-opacity:1;stroke:none" />
      <path
         inkscape:connector-curvature="0"
         class="cls-4"
         d="m 530.11,78.66 a 52.94,52.94 0 0 0 -2.81,-5.58 c -1,-1.81 -2.11,-3.57 -3.24,-5.3 a 94.48,94.48 0 0 0 -7.49,-9.84 107.63,107.63 0 0 0 -18,-16.87 A 112.27,112.27 0 0 0 488,34.39 120.84,120.84 0 0 0 476.82,29 140.55,140.55 0 0 0 453,21.19 l 0.06,-0.3 a 142,142 0 0 1 24.3,6.67 123,123 0 0 1 11.64,5.11 115.69,115.69 0 0 1 11,6.43 109.49,109.49 0 0 1 10.14,7.7 70.13,70.13 0 0 1 8.75,9.2 68.31,68.31 0 0 1 7,10.68 46.7,46.7 0 0 1 4.53,11.87 z"
         id="path121"
         style="fill:#494035;fill-opacity:1;stroke:none" />
      <path
         inkscape:connector-curvature="0"
         class="cls-4"
         d="m 509.69,75.43 a 94.18,94.18 0 0 0 -16,-17.41 113.29,113.29 0 0 0 -9.35,-7.15 c -1.61,-1.13 -3.29,-2.15 -5,-3.17 -1.71,-1.02 -3.45,-1.91 -5.23,-2.74 a 77.29,77.29 0 0 0 -11,-4.3 c -1.88,-0.64 -3.82,-1 -5.73,-1.57 l -2.91,-0.6 -1.46,-0.3 -1.5,-0.19 A 103.66,103.66 0 0 0 427.69,36.89 V 36.6 a 104.17,104.17 0 0 1 24.07,-0.08 l 1.5,0.18 1.49,0.24 3,0.5 c 2,0.46 4,0.81 5.91,1.39 a 79.53,79.53 0 0 1 11.48,4 70.75,70.75 0 0 1 20.55,13 68.66,68.66 0 0 1 8.16,9.06 49.7,49.7 0 0 1 6.15,10.4 z"
         id="path123"
         style="fill:#494035;fill-opacity:1;stroke:none" />
      <path
         inkscape:connector-curvature="0"
         class="cls-4"
         d="m 517.33,107.91 a 166.33,166.33 0 0 0 -11.17,-17 C 502.09,85.6 498,80.26 493,75.71 c -1.22,-1.16 -2.52,-2.22 -3.81,-3.31 -1.29,-1.09 -2.65,-2.07 -4.05,-3 -1.4,-0.93 -2.82,-1.84 -4.25,-2.73 -1.43,-0.89 -2.94,-1.66 -4.48,-2.36 A 61.32,61.32 0 0 0 457,58.58 v -0.3 a 59.5,59.5 0 0 1 10.18,1.48 l 1.26,0.28 1.24,0.36 c 0.83,0.24 1.66,0.46 2.48,0.72 1.62,0.59 3.27,1.12 4.85,1.83 1.58,0.71 3.14,1.45 4.69,2.21 1.55,0.76 3.05,1.65 4.49,2.61 1.44,0.96 2.89,1.92 4.31,2.91 1.42,0.99 2.76,2.09 4.07,3.23 a 74.1,74.1 0 0 1 14,15.28 81.24,81.24 0 0 1 5.21,9 55.37,55.37 0 0 1 3.79,9.63 z"
         id="path125"
         style="fill:#494035;fill-opacity:1;stroke:none" />
      <path
         inkscape:connector-curvature="0"
         class="cls-4"
         d="m 520.61,139.07 a 117.69,117.69 0 0 0 -10,-14.69 c -0.89,-1.16 -1.8,-2.32 -2.76,-3.43 -0.96,-1.11 -1.82,-2.31 -2.82,-3.4 -1,-1.09 -1.89,-2.26 -2.92,-3.32 l -3.1,-3.16 c -1.05,-1 -2.19,-2 -3.28,-3 l -1.65,-1.49 -1.75,-1.37 -3.5,-2.75 -3.64,-2.46 -1.83,-1.27 c -0.62,-0.41 -1.27,-0.77 -1.9,-1.16 l -3.83,-2.3 a 20.72,20.72 0 0 0 -2,-1.08 l -2,-1 -4,-2.06 0.12,-0.28 c 2.74,1.2 5.54,2.3 8.24,3.62 l 4,2.07 c 0.67,0.35 1.35,0.68 2,1 l 2.01,1.16 3.86,2.37 3.7,2.61 1.84,1.31 1.77,1.43 c 1.16,1 2.37,1.87 3.5,2.88 a 73.72,73.72 0 0 1 12.39,13.3 60.86,60.86 0 0 1 4.66,7.84 40.54,40.54 0 0 1 3.18,8.53 z"
         id="path127"
         style="fill:#494035;fill-opacity:1;stroke:none" />
      <path
         inkscape:connector-curvature="0"
         class="cls-4"
         d="m 195.26,137.05 h 1.79 a 13.12,13.12 0 0 0 1.53,-0.07 1.71,1.71 0 0 0 1,-0.39 2,2 0 0 0 0.57,-1 9.94,9.94 0 0 0 0.27,-1.9 h 1 v 8.09 h -1 a 12.73,12.73 0 0 0 -0.23,-2 2.19,2.19 0 0 0 -0.54,-1.09 1.7,1.7 0 0 0 -1,-0.46 10,10 0 0 0 -1.6,-0.1 h -1.79 v 8.64 h 3.62 c 0.71,0 1.33,0 1.87,-0.08 a 5.91,5.91 0 0 0 1.41,-0.3 3,3 0 0 0 1,-0.62 3.38,3.38 0 0 0 0.75,-1 7.54,7.54 0 0 0 0.53,-1.53 c 0.15,-0.6 0.28,-1.32 0.41,-2.14 h 1 l -0.28,6.79 h -15.7 v -1.1 h 2.73 v -17.66 h -2.73 V 128 h 15.36 l 0.28,5.48 h -1 a 12.73,12.73 0 0 0 -0.51,-2.22 3.15,3.15 0 0 0 -0.84,-1.34 3,3 0 0 0 -1.41,-0.66 12,12 0 0 0 -2.19,-0.17 h -4.33 z"
         id="path129"
         style="fill:#494035;fill-opacity:1;stroke:none" />
      <path
         inkscape:connector-curvature="0"
         class="cls-4"
         d="m 209.2,142 h 1 a 8.74,8.74 0 0 0 0.6,2.6 4.87,4.87 0 0 0 1.11,1.65 3.87,3.87 0 0 0 1.52,0.87 6.28,6.28 0 0 0 1.81,0.25 5.66,5.66 0 0 0 2,-0.29 3.42,3.42 0 0 0 1.34,-0.8 2.92,2.92 0 0 0 0.77,-1.23 4.9,4.9 0 0 0 0.24,-1.58 3.76,3.76 0 0 0 -0.36,-1.75 3.38,3.38 0 0 0 -1,-1.18 6.62,6.62 0 0 0 -1.52,-0.84 c -0.59,-0.24 -1.25,-0.48 -2,-0.74 -0.75,-0.26 -1.38,-0.52 -2,-0.8 a 7.09,7.09 0 0 1 -1.7,-1.06 4.66,4.66 0 0 1 -1.17,-1.53 5.25,5.25 0 0 1 -0.43,-2.27 6.42,6.42 0 0 1 0.41,-2.32 4.87,4.87 0 0 1 1.22,-1.8 5.45,5.45 0 0 1 2,-1.15 8.43,8.43 0 0 1 2.78,-0.41 c 0.42,0 0.86,0 1.3,0.06 0.44,0.06 0.89,0.1 1.34,0.18 0.45,0.08 0.87,0.18 1.3,0.3 a 12.54,12.54 0 0 1 1.22,0.37 l 0.16,5 h -1 a 7.35,7.35 0 0 0 -0.54,-2.4 4.23,4.23 0 0 0 -1,-1.46 3.38,3.38 0 0 0 -1.36,-0.72 5.92,5.92 0 0 0 -1.52,-0.2 5.74,5.74 0 0 0 -1.81,0.25 3.37,3.37 0 0 0 -1.27,0.73 2.86,2.86 0 0 0 -0.76,1.15 4.25,4.25 0 0 0 -0.25,1.52 3.54,3.54 0 0 0 0.36,1.68 3.44,3.44 0 0 0 1,1.16 7.15,7.15 0 0 0 1.56,0.86 c 0.6,0.25 1.27,0.51 2,0.78 0.73,0.27 1.32,0.53 2,0.82 a 6.64,6.64 0 0 1 1.73,1.08 4.9,4.9 0 0 1 1.22,1.6 5.34,5.34 0 0 1 0.46,2.36 5.85,5.85 0 0 1 -0.47,2.43 4.7,4.7 0 0 1 -1.35,1.79 6.34,6.34 0 0 1 -2.24,1.04 10.18,10.18 0 0 1 -2.87,0.38 16.88,16.88 0 0 1 -2.92,-0.27 c -0.49,-0.09 -1,-0.2 -1.43,-0.32 a 10.46,10.46 0 0 1 -1.3,-0.41 z"
         id="path131"
         style="fill:#494035;fill-opacity:1;stroke:none" />
      <path
         inkscape:connector-curvature="0"
         class="cls-4"
         d="m 224.32,128 h 16 l 0.32,5.89 h -0.95 a 14.35,14.35 0 0 0 -0.5,-2.47 3.29,3.29 0 0 0 -0.85,-1.46 3,3 0 0 0 -1.43,-0.69 11.19,11.19 0 0 0 -2.2,-0.18 h -1.11 v 17.68 h 3 v 1.1 H 228 v -1.1 h 3 v -17.64 h -1 c -0.6,0 -1.12,0 -1.57,0.07 a 4.85,4.85 0 0 0 -1.2,0.26 2.61,2.61 0 0 0 -0.88,0.54 2.64,2.64 0 0 0 -0.63,0.87 6.43,6.43 0 0 0 -0.45,1.29 17.44,17.44 0 0 0 -0.32,1.77 H 224 Z"
         id="path133"
         style="fill:#494035;fill-opacity:1;stroke:none" />
      <path
         inkscape:connector-curvature="0"
         class="cls-4"
         d="m 336.19,146.93 c 1.08,-0.94 2.05,-1.8 2.91,-2.59 0.86,-0.79 1.62,-1.54 2.28,-2.24 a 19.52,19.52 0 0 0 1.7,-2 12.21,12.21 0 0 0 1.15,-2 9.58,9.58 0 0 0 0.66,-2.09 12.56,12.56 0 0 0 0.22,-2.37 8.86,8.86 0 0 0 -0.27,-2.43 3.87,3.87 0 0 0 -0.7,-1.41 2.11,2.11 0 0 0 -1,-0.66 3.69,3.69 0 0 0 -1.09,-0.16 4.37,4.37 0 0 0 -1.7,0.33 4,4 0 0 0 -1.39,1 3.77,3.77 0 0 1 0.61,1.11 3.89,3.89 0 0 1 0.2,1.17 2.22,2.22 0 0 1 -0.4,1.34 1.36,1.36 0 0 1 -1.17,0.56 1.7,1.7 0 0 1 -0.64,-0.13 1.43,1.43 0 0 1 -0.52,-0.39 1.84,1.84 0 0 1 -0.35,-0.65 2.65,2.65 0 0 1 -0.13,-0.89 4,4 0 0 1 0.41,-1.77 4.71,4.71 0 0 1 1.17,-1.55 5.58,5.58 0 0 1 1.86,-1.11 6.48,6.48 0 0 1 2.39,-0.41 6.11,6.11 0 0 1 2.32,0.41 4.75,4.75 0 0 1 1.73,1.16 5.05,5.05 0 0 1 1.09,1.84 7.36,7.36 0 0 1 0.37,2.42 8.65,8.65 0 0 1 -0.27,2.19 10.55,10.55 0 0 1 -0.74,2 11.56,11.56 0 0 1 -1.13,1.83 20.23,20.23 0 0 1 -1.4,1.69 c -0.5,0.55 -1,1.08 -1.57,1.6 l -1.65,1.52 -1.22,1.1 v 0.08 h 4.48 a 7.37,7.37 0 0 0 1.48,-0.11 1.42,1.42 0 0 0 0.86,-0.5 2.6,2.6 0 0 0 0.48,-1.12 q 0.17,-0.73 0.33,-2 h 1 l -0.29,6.44 h -12.07 z"
         id="path135"
         style="fill:#494035;fill-opacity:1;stroke:none" />
      <path
         inkscape:connector-curvature="0"
         class="cls-4"
         d="m 358.59,148.62 a 5.48,5.48 0 0 1 -2.82,-0.72 6.2,6.2 0 0 1 -2.08,-2.06 10.82,10.82 0 0 1 -1.29,-3.25 21.27,21.27 0 0 1 0,-8.75 10.75,10.75 0 0 1 1.38,-3.36 6.63,6.63 0 0 1 2.19,-2.13 5.56,5.56 0 0 1 2.87,-0.75 5.42,5.42 0 0 1 2.79,0.72 6.08,6.08 0 0 1 2.07,2.06 10.82,10.82 0 0 1 1.29,3.25 19.35,19.35 0 0 1 0.44,4.28 19.73,19.73 0 0 1 -0.43,4.29 11.58,11.58 0 0 1 -1.3,3.39 6.57,6.57 0 0 1 -2.15,2.23 5.57,5.57 0 0 1 -2.96,0.8 z m 0.06,-1.36 a 4.48,4.48 0 0 0 1.13,-0.14 2.46,2.46 0 0 0 1,-0.54 3.37,3.37 0 0 0 0.8,-1 6.72,6.72 0 0 0 0.6,-1.69 18.94,18.94 0 0 0 0.37,-2.47 c 0.08,-0.95 0.13,-2.08 0.13,-3.37 a 30.07,30.07 0 0 0 -0.28,-4.6 9.54,9.54 0 0 0 -0.77,-2.76 2.74,2.74 0 0 0 -1.22,-1.34 3.48,3.48 0 0 0 -1.6,-0.35 3.9,3.9 0 0 0 -1.65,0.35 2.88,2.88 0 0 0 -1.26,1.37 9.48,9.48 0 0 0 -0.81,2.82 31.38,31.38 0 0 0 -0.29,4.71 c 0,1.25 0,2.35 0.12,3.29 a 18,18 0 0 0 0.36,2.41 6.81,6.81 0 0 0 0.57,1.66 3.48,3.48 0 0 0 0.76,1 2.57,2.57 0 0 0 0.95,0.53 4.46,4.46 0 0 0 1.09,0.12 z"
         id="path137"
         style="fill:#494035;fill-opacity:1;stroke:none" />
      <path
         inkscape:connector-curvature="0"
         class="cls-4"
         d="m 368.2,146.93 c 1.07,-0.94 2,-1.8 2.9,-2.59 0.9,-0.79 1.62,-1.54 2.29,-2.24 a 19.35,19.35 0 0 0 1.69,-2 11.59,11.59 0 0 0 1.16,-2 9.58,9.58 0 0 0 0.66,-2.09 12.59,12.59 0 0 0 0.21,-2.37 8.86,8.86 0 0 0 -0.27,-2.43 3.87,3.87 0 0 0 -0.69,-1.41 2.11,2.11 0 0 0 -1,-0.66 3.74,3.74 0 0 0 -1.09,-0.16 4.33,4.33 0 0 0 -1.7,0.33 3.8,3.8 0 0 0 -1.39,1 4,4 0 0 1 0.6,1.11 3.62,3.62 0 0 1 0.21,1.17 2.22,2.22 0 0 1 -0.41,1.34 1.36,1.36 0 0 1 -1.17,0.56 1.74,1.74 0 0 1 -0.64,-0.13 1.52,1.52 0 0 1 -0.52,-0.39 2.23,2.23 0 0 1 -0.35,-0.65 2.93,2.93 0 0 1 -0.13,-0.89 4.16,4.16 0 0 1 0.41,-1.77 5,5 0 0 1 1.17,-1.55 5.74,5.74 0 0 1 1.86,-1.11 6.48,6.48 0 0 1 2.39,-0.41 6,6 0 0 1 2.31,0.41 4.88,4.88 0 0 1 1.74,1.16 5.18,5.18 0 0 1 1.08,1.84 7.36,7.36 0 0 1 0.38,2.42 8.65,8.65 0 0 1 -0.27,2.19 10.58,10.58 0 0 1 -0.75,2 11.5,11.5 0 0 1 -1.12,1.83 20.23,20.23 0 0 1 -1.4,1.69 c -0.5,0.55 -1,1.08 -1.57,1.6 -0.57,0.52 -1.1,1 -1.66,1.52 l -1.21,1.1 v 0.08 h 4.49 a 7.2,7.2 0 0 0 1.47,-0.11 1.42,1.42 0 0 0 0.87,-0.5 2.6,2.6 0 0 0 0.47,-1.12 q 0.17,-0.73 0.33,-2 h 1 l -0.29,6.44 H 368.2 Z"
         id="path139"
         style="fill:#494035;fill-opacity:1;stroke:none" />
      <path
         inkscape:connector-curvature="0"
         class="cls-4"
         d="m 389,128.1 v 18.64 h 3 v 1.39 h -8.55 v -1.39 h 3 V 129.5 h -3.28 v -1.4 z"
         id="path141"
         style="fill:#494035;fill-opacity:1;stroke:none" />
      <path
         inkscape:connector-curvature="0"
         class="cls-4"
         d="m 427.77,368.59 c 0,0 -1.59,19.75 -13.95,28 -12.36,8.25 -26.25,7.35 -26.25,7.35 0,0 -6.84,1.6 23.33,-19.28 0,0 9.36,-6.35 12.73,-12.07 3.37,-5.72 4.78,-8.25 4.14,-4 z"
         id="path143"
         style="fill:#494035;fill-opacity:1;stroke:none" />
      <path
         inkscape:connector-curvature="0"
         class="cls-4"
         d="m 445.15,353.86 c 0,0 3.05,14.41 -5.08,24.75 a 52.86,52.86 0 0 1 -19.49,14.91 c 0,0 -5.15,3.67 14.53,-22.17 0,0 6.12,-7.93 7.58,-13.19 1.46,-5.26 2.04,-7.51 2.46,-4.3 z"
         id="path145"
         style="fill:#494035;fill-opacity:1;stroke:none" />
      <path
         inkscape:connector-curvature="0"
         class="cls-4"
         d="m 461.69,333.48 c 0,0 7.15,11.93 -1.82,27.82 -8.97,15.89 -16.56,19 -16.56,19 0,0 -1.16,-0.05 5.67,-11 0,0 3.29,-6.8 2.07,-11.38 -1.22,-4.58 8.2,-17.33 8.2,-17.33 0,0 1.69,-3.61 1.23,-5.78 -0.27,-1.33 0.75,-2.23 1.21,-1.33 z"
         id="path147"
         style="fill:#494035;fill-opacity:1;stroke:none" />
      <path
         inkscape:connector-curvature="0"
         class="cls-4"
         d="m 466.43,355 c 2.29,-1.94 9.49,-9.09 14,-25.58 0,0 2.71,-11.24 -5.57,-18.86 0,0 -1.71,-0.17 -1.54,2.88 0.17,3.05 -1.07,10.34 -4.49,18.91 0,0 -1.78,2.91 0,8.86 0,0 1.92,3 -2.72,13.4 -0.11,0.32 0.07,0.6 0.32,0.39 z"
         id="path149"
         style="fill:#494035;fill-opacity:1;stroke:none" />
      <path
         inkscape:connector-curvature="0"
         class="cls-4"
         d="m 483.79,326 c 0,0 10.43,-13.24 10.22,-31.32 -0.8,-8.12 -3.69,-9.33 -12,-10.77 0,0 -1.63,0 0.05,3 a 5.55,5.55 0 0 1 0.72,2.34 39.71,39.71 0 0 1 -1,11.6 13.31,13.31 0 0 0 -0.3,4.52 21.59,21.59 0 0 0 2.73,8.36 c 0,0 1.72,3.13 -0.28,10.33 0.07,0.01 -2.14,4.94 -0.14,1.94 z"
         id="path151"
         style="fill:#494035;fill-opacity:1;stroke:none" />
      <path
         inkscape:connector-curvature="0"
         class="cls-4"
         d="m 498,293.63 c 0,0 6.69,-10.59 2.62,-26.18 0,0 -2.11,-10.45 -15.42,-5.6 0,0 -2,1.49 0.31,3.92 a 23.36,23.36 0 0 1 3.9,12.23 7.86,7.86 0 0 0 4.64,4.65 c 0,0 4.41,3.27 3.55,10.17 0,-0.02 -0.86,2.63 0.4,0.81 z"
         id="path153"
         style="fill:#494035;fill-opacity:1;stroke:none" />
      <path
         inkscape:connector-curvature="0"
         class="cls-4"
         d="m 511.25,250 c 0,0 2.45,-15.81 -5.52,-27.79 0,0 -1.12,-1.93 -1.46,1.19 0,0 -1,18.58 -3.55,25.6 0,0 -1.81,6.55 -1.47,6.88 0.34,0.33 3.26,2.87 3.56,5.89 0,0 0.67,4 2.25,2.41 1.58,-1.59 5.25,-8.18 6.19,-14.18 z"
         id="path155"
         style="fill:#494035;fill-opacity:1;stroke:none" />
      <path
         inkscape:connector-curvature="0"
         class="cls-4"
         d="m 503.74,284.71 c 0,0 2.7,-8.74 1.38,-14.6 0,0 -1,-1.31 5.9,-10.72 6.9,-9.41 11.05,-18.26 11.26,-15.3 0.21,2.96 -4.32,22.72 -10.19,33 0,0.05 -9.45,12.3 -8.35,7.62 z"
         id="path157"
         style="fill:#494035;fill-opacity:1;stroke:none" />
      <path
         inkscape:connector-curvature="0"
         class="cls-4"
         d="m 499.39,313.82 a 68.28,68.28 0 0 0 12.84,-23.53 c 4.25,-14 1.67,-9.1 1.67,-9.1 0,0 -12.12,16.73 -17.3,19.81 0,0 -1.74,11.09 -6.41,19.18 a 25,25 0 0 0 9.2,-6.36 z"
         id="path159"
         style="fill:#494035;fill-opacity:1;stroke:none" />
      <path
         inkscape:connector-curvature="0"
         class="cls-4"
         d="m 472.53,352.4 c 0,0 6.28,-9.31 9.36,-18.68 0,0 10.27,-5.48 16.05,-11.83 5.78,-6.35 2.09,0.63 2.09,0.63 0,0 -12.58,28.71 -27.5,29.88 z"
         id="path161"
         style="fill:#494035;fill-opacity:1;stroke:none" />
      <path
         inkscape:connector-curvature="0"
         class="cls-4"
         d="m 450.82,377.52 c 0,0 5.56,-3.71 10.63,-14.68 0,0 9.57,-6 15.95,-5.86 0,0 8.94,-2.08 1,4 -0.02,0.02 -16.4,19.24 -27.58,16.54 z"
         id="path163"
         style="fill:#494035;fill-opacity:1;stroke:none" />
      <path
         inkscape:connector-curvature="0"
         class="cls-4"
         d="m 453.12,389.84 c 0,0 6.68,-2.68 1.58,-3.63 -5.1,-0.95 -12.58,-4.83 -18.59,1.05 -6.01,5.88 -9.81,9 -12.32,8.87 0,0 6.55,5.89 13.65,3.55 7.1,-2.34 12.14,-9.12 15.68,-9.84 z"
         id="path165"
         style="fill:#494035;fill-opacity:1;stroke:none" />
      <path
         inkscape:connector-curvature="0"
         class="cls-4"
         d="m 427.2,411.14 c 0,0 -9.05,-12 -20.35,-8.19 a 36.28,36.28 0 0 1 -19,5.57 c 0,0 -4.39,0.5 2.38,4.1 0,0 10.82,7.89 26.13,2 0,0 5.08,-1.83 7.82,-1.3 2.74,0.53 3.68,0.32 3.02,-2.18 z"
         id="path167"
         style="fill:#494035;fill-opacity:1;stroke:none" />
      <path
         inkscape:connector-curvature="0"
         class="cls-4"
         d="m 521.71,235.18 a 84.54,84.54 0 0 0 0.48,-8.52 c -0.05,-1.41 0,-2.82 -0.09,-4.22 l -0.09,-2.11 c 0,-0.7 -0.13,-1.4 -0.19,-2.09 -0.11,-1.4 -0.22,-2.8 -0.43,-4.19 -0.21,-1.39 -0.27,-2.79 -0.54,-4.17 -0.27,-1.38 -0.39,-2.78 -0.71,-4.15 l -1,-4.12 c -0.37,-1.36 -0.86,-2.68 -1.28,-4 -0.23,-0.67 -0.43,-1.35 -0.67,-2 l -0.81,-2 c -0.55,-1.3 -1.07,-2.62 -1.65,-3.92 l -1.94,-3.79 -1,-1.9 -1.11,-1.83 -2.22,-3.65 a 18.39,18.39 0 0 0 -1.21,-1.77 l -1.19,-1.75 -2.5,-3.49 0.23,-0.2 c 1.82,2.21 3.75,4.37 5.48,6.67 l 2.49,3.53 1.25,1.78 1.1,1.87 2.18,3.75 c 0.67,1.29 1.26,2.61 1.9,3.92 l 0.94,2 c 0.28,0.67 0.52,1.35 0.79,2 0.51,1.36 1.08,2.7 1.53,4.08 a 58.78,58.78 0 0 1 3.36,17.16 42.15,42.15 0 0 1 -2.81,17.2 z"
         id="path169"
         style="fill:#494035;fill-opacity:1;stroke:none" />
      <path
         inkscape:connector-curvature="0"
         class="cls-4"
         d="m 512.75,223.72 a 69.41,69.41 0 0 0 -0.15,-7.51 c -0.15,-1.24 -0.18,-2.47 -0.4,-3.69 l -0.23,-1.84 c -0.09,-0.61 -0.23,-1.21 -0.34,-1.82 a 77,77 0 0 0 -3.79,-14.28 l -1.54,-3.39 a 28.89,28.89 0 0 0 -1.73,-3.31 c -0.63,-1.07 -1.19,-2.2 -1.88,-3.24 l -2.13,-3.09 c -0.35,-0.52 -0.68,-1.06 -1.06,-1.55 l -1.19,-1.47 -2.37,-2.93 c -0.8,-1 -1.72,-1.84 -2.57,-2.77 l -2.61,-2.75 0.2,-0.23 c 1.88,1.69 3.83,3.34 5.66,5.12 l 2.62,2.78 1.31,1.4 c 0.43,0.47 0.8,1 1.21,1.49 l 2.36,3 c 0.77,1 1.41,2.13 2.13,3.2 a 30.79,30.79 0 0 1 2,3.31 l 1.81,3.42 a 47.22,47.22 0 0 1 4.56,14.83 33.58,33.58 0 0 1 -1.62,15.4 z"
         id="path171"
         style="fill:#494035;fill-opacity:1;stroke:none" />
      <path
         inkscape:connector-curvature="0"
         class="cls-4"
         d="m 503.24,216.09 a 74.49,74.49 0 0 0 -3.33,-13.72 59.76,59.76 0 0 0 -5.74,-12.68 42.39,42.39 0 0 0 -4.23,-5.6 47.06,47.06 0 0 0 -5.06,-4.92 59.12,59.12 0 0 0 -11.94,-7.76 l 0.12,-0.27 a 56.45,56.45 0 0 1 12.75,6.86 48.34,48.34 0 0 1 5.55,4.77 44,44 0 0 1 4.79,5.58 51.83,51.83 0 0 1 4,6.25 33.75,33.75 0 0 1 2.68,6.91 36.86,36.86 0 0 1 1.19,7.28 26.85,26.85 0 0 1 -0.43,7.33 z"
         id="path173"
         style="fill:#494035;fill-opacity:1;stroke:none" />
      <path
         inkscape:connector-curvature="0"
         class="cls-4"
         d="m 497.2,236.12 c -0.28,-4.18 -0.57,-8.24 -1.05,-12.26 a 87.63,87.63 0 0 0 -1.88,-12 39.28,39.28 0 0 0 -4.77,-11.1 34.54,34.54 0 0 0 -8.17,-9.06 l 0.17,-0.25 a 33.82,33.82 0 0 1 9.24,8.46 41.49,41.49 0 0 1 5.83,11.25 c 0.69,2 1.28,4 1.77,6.12 a 33.53,33.53 0 0 1 0.8,6.31 43.28,43.28 0 0 1 -0.28,6.34 29.4,29.4 0 0 1 -1.36,6.19 z"
         id="path175"
         style="fill:#494035;fill-opacity:1;stroke:none" />
      <path
         inkscape:connector-curvature="0"
         class="cls-4"
         d="m 489.33,254.17 c -0.13,-1.84 -0.31,-3.64 -0.47,-5.42 -0.14,-0.89 -0.17,-1.78 -0.32,-2.66 -0.15,-0.88 -0.19,-1.77 -0.36,-2.64 l -0.72,-5.26 c -0.14,-0.88 -0.25,-1.76 -0.4,-2.64 l -0.57,-2.61 c -0.18,-0.87 -0.48,-1.72 -0.71,-2.58 -0.23,-0.86 -0.49,-1.72 -0.81,-2.56 l -0.92,-2.53 c -0.34,-0.83 -0.71,-1.64 -1.07,-2.47 -0.65,-1.68 -1.55,-3.25 -2.35,-4.87 -0.39,-0.82 -0.91,-1.56 -1.36,-2.35 l -1.38,-2.35 0.24,-0.18 c 1.1,1.46 2.27,2.87 3.29,4.4 1.02,1.53 2.06,3.05 2.9,4.68 0.44,0.82 0.89,1.62 1.31,2.44 l 1.15,2.52 c 0.41,0.84 0.73,1.7 1.06,2.57 0.33,0.87 0.69,1.72 1,2.61 a 38.79,38.79 0 0 1 2.38,10.91 27.12,27.12 0 0 1 -1.55,11 z"
         id="path177"
         style="fill:#494035;fill-opacity:1;stroke:none" />
      <path
         inkscape:connector-curvature="0"
         class="cls-4"
         d="m 148,351.54 c 0,0 -3.23,19.94 7.11,31.06 10.34,11.12 24.41,13.64 24.41,13.64 0,0 6.44,3.24 -18.59,-24.74 0,0 -7.79,-8.56 -9.76,-15 -1.97,-6.44 -2.79,-9.31 -3.17,-4.96 z"
         id="path179"
         style="fill:#494035;fill-opacity:1;stroke:none" />
      <path
         inkscape:connector-curvature="0"
         class="cls-4"
         d="m 134.22,332.75 c 0,0 -6.56,13.52 -1,25.73 A 54.23,54.23 0 0 0 149.08,378 c 0,0 4.25,4.87 -9.1,-25.47 0,0 -4.18,-9.33 -4.35,-14.89 -0.17,-5.56 -0.21,-7.96 -1.41,-4.89 z"
         id="path181"
         style="fill:#494035;fill-opacity:1;stroke:none" />
      <path
         inkscape:connector-curvature="0"
         class="cls-4"
         d="m 122.68,308.57 c 0,0 -10,10.07 -5,28 5,17.93 11.9,22.81 11.9,22.81 0,0 1.17,0.23 -3,-12.3 0,0 -1.62,-7.54 0.72,-11.77 2.34,-4.23 -4,-19.14 -4,-19.14 0,0 -0.8,-4 0.18,-6 0.68,-1.24 -0.12,-2.38 -0.8,-1.6 z"
         id="path183"
         style="fill:#494035;fill-opacity:1;stroke:none" />
      <path
         inkscape:connector-curvature="0"
         class="cls-4"
         d="m 112.71,328.71 c -1.82,-2.47 -7.27,-11.3 -7.75,-28.71 0,0 0,-11.78 10.15,-17.31 0,0 1.76,0.24 0.84,3.22 -0.92,2.98 -1.45,10.49 -0.13,19.81 0,0 1.07,3.31 -2.18,8.76 0,0 -2.65,2.5 -0.55,13.92 0.07,0.35 -0.19,0.6 -0.38,0.31 z"
         id="path185"
         style="fill:#494035;fill-opacity:1;stroke:none" />
      <path
         inkscape:connector-curvature="0"
         class="cls-4"
         d="m 102.44,295.81 c 0,0 -7.18,-15.63 -2.57,-33.48 2.78,-7.83 6,-8.33 14.6,-7.73 0,0 1.63,0.4 -0.78,3 a 5.79,5.79 0 0 0 -1.29,2.13 39.86,39.86 0 0 0 -1.88,11.72 13.39,13.39 0 0 1 -0.8,4.55 22,22 0 0 1 -4.77,7.61 c 0,0 -2.47,2.67 -2.24,10.28 0,-0.05 1.01,5.33 -0.27,1.92 z"
         id="path187"
         style="fill:#494035;fill-opacity:1;stroke:none" />
      <path
         inkscape:connector-curvature="0"
         class="cls-4"
         d="m 96.14,260.32 c 0,0 -4.09,-12.11 3.77,-26.54 0,0 4.66,-9.83 16.76,-1.8 0,0 1.62,2 -1.27,3.8 a 23.81,23.81 0 0 0 -6.86,11.13 8,8 0 0 1 -5.76,3.48 c 0,0 -5.2,2.17 -6,9.21 -0.03,0 0.22,2.83 -0.64,0.72 z"
         id="path189"
         style="fill:#494035;fill-opacity:1;stroke:none" />
      <path
         inkscape:connector-curvature="0"
         class="cls-4"
         d="m 93.57,213.91 c 0,0 1.41,-16.25 12.28,-26.17 0,0 1.59,-1.63 1.17,1.54 0,0 -3.52,18.63 -2.7,26.2 0,0 0.22,6.91 -0.2,7.16 -0.42,0.25 -4,2 -5,5 0,0 -1.65,3.83 -2.84,1.84 -1.19,-1.99 -3.28,-9.37 -2.71,-15.57 z"
         id="path191"
         style="fill:#494035;fill-opacity:1;stroke:none" />
      <path
         inkscape:connector-curvature="0"
         class="cls-4"
         d="m 92.59,250.09 c 0,0 -0.56,-9.3 2.18,-14.78 0,0 1.33,-1.05 -3.26,-12 -4.59,-10.95 -6.58,-20.79 -7.51,-17.9 -0.93,2.89 -1.23,23.52 2.11,35.17 0,0 6.45,14.42 6.48,9.51 z"
         id="path193"
         style="fill:#494035;fill-opacity:1;stroke:none" />
      <path
         inkscape:connector-curvature="0"
         class="cls-4"
         d="m 89.85,280 a 69,69 0 0 1 -7.09,-26.4 c -0.82,-14.91 0.55,-9.41 0.55,-9.41 0,0 8,19.5 12.45,23.76 0,0 -1,11.39 1.73,20.53 A 25.38,25.38 0 0 1 89.85,280 Z"
         id="path195"
         style="fill:#494035;fill-opacity:1;stroke:none" />
      <path
         inkscape:connector-curvature="0"
         class="cls-4"
         d="m 107.24,324.66 c 0,0 -4,-10.73 -4.78,-20.76 0,0 -8.92,-7.92 -13.14,-15.61 -4.22,-7.69 -2.24,0.13 -2.24,0.13 0,0 5.56,31.46 20.16,36.24 z"
         id="path197"
         style="fill:#494035;fill-opacity:1;stroke:none" />
      <path
         inkscape:connector-curvature="0"
         class="cls-4"
         d="m 122.79,354.79 c 0,0 -4.64,-5 -7,-17.11 0,0 -8.09,-8.26 -14.5,-9.67 0,0 -8.41,-4.23 -2,3.72 0.02,0 11.71,23.02 23.5,23.06 z"
         id="path199"
         style="fill:#494035;fill-opacity:1;stroke:none" />
      <path
         inkscape:connector-curvature="0"
         class="cls-4"
         d="m 117.5,366.42 c 0,0 -6,-4.27 -0.7,-4 5.3,0.27 13.74,-1.73 18.3,5.55 4.56,7.28 7.59,11.32 10.14,11.76 0,0 -8,4.25 -14.49,0.21 -6.49,-4.04 -9.89,-11.94 -13.25,-13.52 z"
         id="path201"
         style="fill:#494035;fill-opacity:1;stroke:none" />
      <path
         inkscape:connector-curvature="0"
         class="cls-4"
         d="m 138.18,393.8 c 0,0 11.95,-9.64 22.31,-3.17 a 37.29,37.29 0 0 0 17.61,10.12 c 0,0 4.26,1.57 -3.38,3.48 0,0 -12.73,5.19 -26.57,-4.39 0,0 -4.62,-3 -7.48,-3.19 -2.86,-0.19 -3.77,-0.54 -2.49,-2.85 z"
         id="path203"
         style="fill:#494035;fill-opacity:1;stroke:none" />
      <path
         inkscape:connector-curvature="0"
         class="cls-4"
         d="M 86.43,196.74 A 43.09,43.09 0 0 1 87.86,179 60.4,60.4 0 0 1 95.4,162.83 c 0.8,-1.26 1.69,-2.45 2.53,-3.67 0.43,-0.61 0.84,-1.23 1.29,-1.82 l 1.41,-1.71 c 1,-1.14 1.87,-2.31 2.85,-3.41 l 3.08,-3.19 1.55,-1.58 1.68,-1.45 3.34,-2.89 c 2.28,-1.85 4.72,-3.51 7.07,-5.25 l 0.18,0.25 -3.38,2.89 -1.68,1.41 c -0.55,0.47 -1.12,0.92 -1.63,1.45 l -3.1,3.07 -1.56,1.53 -1.42,1.65 -2.86,3.28 c -0.9,1.13 -1.74,2.32 -2.61,3.47 l -1.29,1.74 c -0.41,0.6 -0.77,1.22 -1.16,1.83 -0.75,1.23 -1.56,2.43 -2.27,3.68 l -2,3.84 c -0.66,1.27 -1.15,2.63 -1.73,3.94 -0.58,1.31 -1,2.67 -1.56,4 -0.26,0.67 -0.54,1.33 -0.77,2 l -0.68,2 c -0.23,0.68 -0.5,1.35 -0.7,2 l -0.6,2.07 c -0.47,1.36 -0.73,2.77 -1.13,4.17 a 85.56,85.56 0 0 0 -1.57,8.56 z"
         id="path205"
         style="fill:#494035;fill-opacity:1;stroke:none" />
      <path
         inkscape:connector-curvature="0"
         class="cls-4"
         d="m 98.17,187.56 a 34.16,34.16 0 0 1 2.24,-15.6 c 1.81,-5 4.89,-9.47 8.17,-13.58 a 70,70 0 0 1 5.43,-5.73 c 1,-0.88 1.88,-1.83 2.9,-2.65 l 3.09,-2.42 c 0.52,-0.4 1,-0.82 1.56,-1.18 l 1.65,-1.06 3.28,-2.12 c 2.25,-1.31 4.59,-2.46 6.87,-3.68 l 0.14,0.27 -3.26,2.09 c -1.08,0.7 -2.21,1.33 -3.24,2.09 l -3.08,2.33 -1.54,1.16 c -0.5,0.39 -1,0.85 -1.44,1.27 l -2.88,2.54 c -1,0.85 -1.78,1.83 -2.67,2.74 a 65,65 0 0 0 -4.91,5.83 78.23,78.23 0 0 0 -7.29,13.22 c -0.26,0.58 -0.54,1.14 -0.78,1.72 l -0.68,1.77 c -0.52,1.16 -0.85,2.37 -1.3,3.57 a 69,69 0 0 0 -2,7.42 z"
         id="path207"
         style="fill:#494035;fill-opacity:1;stroke:none" />
      <path
         inkscape:connector-curvature="0"
         class="cls-4"
         d="m 109.53,182.27 a 27.67,27.67 0 0 1 1.39,-7.38 37.65,37.65 0 0 1 3,-6.94 34.24,34.24 0 0 1 4.38,-6.18 50.86,50.86 0 0 1 5.46,-5.23 45.17,45.17 0 0 1 6.14,-4.35 50.22,50.22 0 0 1 6.68,-3.35 58.07,58.07 0 0 1 14.34,-3.68 l 0.06,0.3 a 61,61 0 0 0 -13.78,4.75 47.26,47.26 0 0 0 -6.25,3.62 43.51,43.51 0 0 0 -5.6,4.51 60.25,60.25 0 0 0 -8.86,11.15 74.09,74.09 0 0 0 -6.65,12.83 z"
         id="path209"
         style="fill:#494035;fill-opacity:1;stroke:none" />
      <path
         inkscape:connector-curvature="0"
         class="cls-4"
         d="m 110.67,203.58 a 30.4,30.4 0 0 1 0.17,-6.47 44.39,44.39 0 0 1 1.29,-6.35 34.07,34.07 0 0 1 2.35,-6.06 61.87,61.87 0 0 1 3.26,-5.63 41.91,41.91 0 0 1 8.55,-9.7 34.89,34.89 0 0 1 11.24,-6.11 l 0.11,0.29 a 35.35,35.35 0 0 0 -10.35,6.94 40.06,40.06 0 0 0 -7.5,9.82 88.18,88.18 0 0 0 -4.79,11.38 c -1.46,3.87 -2.73,7.83 -4,11.91 z"
         id="path211"
         style="fill:#494035;fill-opacity:1;stroke:none" />
      <path
         inkscape:connector-curvature="0"
         class="cls-4"
         d="m 114.13,223.36 a 27.63,27.63 0 0 1 1.19,-11.36 40,40 0 0 1 5,-10.22 c 0.48,-0.82 1.06,-1.57 1.59,-2.35 a 26.76,26.76 0 0 1 1.68,-2.28 l 1.76,-2.22 c 0.62,-0.71 1.26,-1.39 1.89,-2.09 1.24,-1.42 2.68,-2.63 4,-3.93 1.32,-1.3 2.9,-2.37 4.34,-3.54 l 0.19,0.23 -2,2 c -0.64,0.67 -1.34,1.27 -1.93,2 -1.19,1.41 -2.47,2.74 -3.54,4.24 -0.56,0.73 -1.13,1.45 -1.67,2.18 l -1.53,2.29 a 25.13,25.13 0 0 0 -1.44,2.33 c -0.45,0.79 -1,1.55 -1.35,2.38 l -1.2,2.44 c -0.37,0.83 -0.7,1.68 -1,2.52 l -2,5 c -0.37,0.83 -0.67,1.68 -1,2.53 -0.33,0.85 -0.61,1.71 -1,2.56 -0.6,1.73 -1.2,3.47 -1.77,5.26 z"
         id="path213"
         style="fill:#494035;fill-opacity:1;stroke:none" />
    </g>
  </g>
</svg>
